<svg width="60" height="60" viewBox="0 0 60 60" fill="none" xmlns="http://www.w3.org/2000/svg">
    <g clip-path="url(#clip0)">
        <path d="M54.2665 24.9539L57.3309 24.5838C58.8525 24.4 60.0002 23.1055 60.0002 21.5727C60.0002 19.9003 58.6396 18.5397 56.9671 18.5397H54.8325C53.5282 18.5397 52.4137 19.3673 51.9863 20.525L49.0009 13.9901C47.8932 11.5637 45.6797 9.75909 43.0797 9.1631C38.6791 8.15468 21.3211 8.15456 16.9203 9.1631C14.3204 9.75922 12.107 11.5637 10.9994 13.9898L8.01377 20.5246C7.58618 19.3672 6.47183 18.5398 5.16765 18.5398H3.03302C1.36053 18.5397 0 19.9003 0 21.5727C0 23.1055 1.1475 24.4 2.6693 24.5838L5.73356 24.9539L2.80291 27.8847C1.37825 29.3092 0.696711 31.3506 0.979603 33.3453L1.98203 40.413C2.23967 42.2295 3.18141 43.8136 4.52053 44.9209V48.1308C4.52053 50.0401 6.07382 51.5933 7.98305 51.5933H13.7249C15.6341 51.5933 17.1874 50.0401 17.1874 48.1308V46.5719H42.8133V48.131C42.8133 50.0402 44.3665 51.5935 46.2758 51.5935H52.0162C53.9255 51.5935 55.4787 50.0402 55.4787 48.131V44.9214C56.8181 43.8141 57.7601 42.2298 58.0178 40.413L59.0202 33.3453C59.3031 31.3505 58.6215 29.3092 57.197 27.8845L54.2665 24.9539ZM50.9239 44.2772H9.07611C6.75689 44.2772 4.7509 42.6109 4.30074 40.3592H55.6993C55.2491 42.6108 53.2431 44.2772 50.9239 44.2772ZM43.5176 34.3311L44.684 38.0644H43.0947L41.9284 34.3311H43.5176ZM39.5242 34.3311L40.6906 38.0644H19.309L20.4754 34.3311H39.5242ZM16.9049 38.0644H15.3162L16.4825 34.3311H18.0713L16.9049 38.0644ZM12.912 38.0644H3.9666L3.43702 34.3311H14.0783L12.912 38.0644ZM47.088 38.0644L45.9216 34.3311H56.5629L56.0333 38.0644H47.088ZM54.0942 21.5727C54.0942 21.1656 54.4254 20.8344 54.8325 20.8344H56.9671C57.3742 20.8344 57.7054 21.1656 57.7054 21.5727C57.7054 21.9459 57.4261 22.2609 57.0557 22.3056L54.0944 22.6632V21.5727H54.0942ZM17.433 11.3997C21.4263 10.4846 38.5738 10.4846 42.567 11.3997C43.5522 11.6256 44.4604 12.0893 45.2219 12.7288C39.755 11.7815 20.2393 11.7817 14.7779 12.729C15.5394 12.0894 16.4477 11.6256 17.433 11.3997ZM12.6953 15.7996C13.4048 15.4404 14.1728 15.1797 14.9838 15.0238C19.8951 14.0763 40.1044 14.0761 45.0179 15.0239C45.8279 15.1795 46.5953 15.4401 47.3045 15.799L50.851 23.5616H9.14942L12.6953 15.7996ZM2.29475 21.5727C2.29475 21.1656 2.62596 20.8344 3.03302 20.8344H5.16765C5.57471 20.8344 5.90592 21.1656 5.90592 21.5727V22.6633L2.94467 22.3057C2.57407 22.2609 2.29475 21.9457 2.29475 21.5727ZM8.07637 25.8564H51.9237L55.5746 29.5073C56.2565 30.1892 56.6734 31.0909 56.7679 32.0364H3.23215C3.32662 31.0909 3.7435 30.1892 4.42542 29.5073L8.07637 25.8564ZM14.8928 48.131C14.8928 48.7749 14.369 49.2987 13.725 49.2987H7.98318C7.33924 49.2987 6.8154 48.7749 6.8154 48.131V46.2011C7.52984 46.4415 8.2908 46.5719 9.07624 46.5719H14.8928V48.131ZM53.1842 48.131C53.1842 48.7749 52.6604 49.2987 52.0165 49.2987H46.276C45.6321 49.2987 45.1083 48.7749 45.1083 48.131V46.5719H50.924C51.7094 46.5719 52.4701 46.4416 53.1844 46.2013V48.131H53.1842Z" fill="#FFB11B"/>
    </g>
    <defs>
        <clipPath id="clip0">
            <rect width="60" height="60" fill="white"/>
        </clipPath>
    </defs>
</svg>
