<svg width="80" height="80" viewBox="0 0 80 80" fill="none" xmlns="http://www.w3.org/2000/svg">
    <path d="M57.5 47.5H52.5V50H57.5V47.5Z" fill="#FFB11B"/>
    <path d="M16.25 62.5H13.75V65H16.25V62.5Z" fill="#FFB11B"/>
    <path d="M62.5 62.5H60V65H62.5V62.5Z" fill="#FFB11B"/>
    <path d="M76.6375 41.9674L70.5587 30.7173C70.2373 30.1223 69.7608 29.6252 69.1799 29.2789C68.5989 28.9325 67.9351 28.7497 67.2588 28.7498H50.1512L10.6025 10.3173C10.4539 10.2477 10.2931 10.2082 10.1291 10.2011C9.96521 10.194 9.80151 10.2195 9.6475 10.2761C9.49309 10.3321 9.35124 10.418 9.23006 10.5289C9.10887 10.6398 9.01074 10.7735 8.94125 10.9223L6.82875 15.4598C6.75883 15.6089 6.71905 15.7703 6.7117 15.9348C6.70434 16.0993 6.72956 16.2636 6.78589 16.4183C6.84222 16.573 6.92857 16.7151 7.03996 16.8363C7.15135 16.9576 7.2856 17.0556 7.435 17.1248L7.5 17.1511V23.7498C7.5 24.0814 7.6317 24.3993 7.86612 24.6337C8.10054 24.8682 8.41848 24.9998 8.75 24.9998C8.99723 24.9998 9.2389 25.0732 9.44446 25.2105C9.65002 25.3479 9.81024 25.5431 9.90485 25.7715C9.99946 25.9999 10.0242 26.2512 9.97598 26.4937C9.92775 26.7362 9.8087 26.9589 9.63388 27.1337C9.45907 27.3085 9.23634 27.4276 8.99386 27.4758C8.75139 27.5241 8.50005 27.4993 8.27165 27.4047C8.04324 27.3101 7.84801 27.1499 7.71066 26.9443C7.57331 26.7388 7.5 26.4971 7.5 26.2498H5C5.00013 26.9373 5.18924 27.6115 5.54665 28.1988C5.90407 28.786 6.41603 29.2637 7.0266 29.5797C7.63716 29.8956 8.32283 30.0376 9.00866 29.9902C9.69449 29.9428 10.3541 29.7077 10.9154 29.3108C11.4766 28.9138 11.918 28.3702 12.1912 27.7394C12.4644 27.1085 12.5589 26.4147 12.4644 25.7338C12.3699 25.0528 12.0901 24.411 11.6555 23.8783C11.2208 23.3457 10.6481 22.9428 10 22.7136V18.3161L42.5 33.4648V51.2498H3.75C3.41848 51.2498 3.10054 51.3815 2.86612 51.616C2.6317 51.8504 2.5 52.1683 2.5 52.4998V62.4998C2.5 63.1629 2.76339 63.7988 3.23223 64.2676C3.70107 64.7365 4.33696 64.9998 5 64.9998H7.6125C7.90629 66.7467 8.8096 68.333 10.1621 69.4769C11.5145 70.6209 13.2286 71.2486 15 71.2486C16.7714 71.2486 18.4855 70.6209 19.8379 69.4769C21.1904 68.333 22.0937 66.7467 22.3875 64.9998H53.8625C54.1563 66.7467 55.0596 68.333 56.4121 69.4769C57.7645 70.6209 59.4786 71.2486 61.25 71.2486C63.0214 71.2486 64.7355 70.6209 66.0879 69.4769C67.4404 68.333 68.3437 66.7467 68.6375 64.9998H73.75C74.7446 64.9998 75.6984 64.6048 76.4016 63.9015C77.1049 63.1982 77.5 62.2444 77.5 61.2498V45.1348C77.5024 44.0207 77.2044 42.9265 76.6375 41.9674ZM68.3587 31.9061L74.0837 42.4998H55V31.2498H67.2588C67.4842 31.2498 67.7055 31.3108 67.8992 31.4264C68.0928 31.5419 68.2516 31.7077 68.3587 31.9061ZM10.68 13.1111L47.5 30.2724V33.0386L9.625 15.3823L10.68 13.1111ZM45 34.6311L47.5 35.7961V51.2498H45V34.6311ZM15 68.7498C14.0111 68.7498 13.0444 68.4566 12.2221 67.9072C11.3999 67.3578 10.759 66.5769 10.3806 65.6633C10.0022 64.7496 9.90315 63.7443 10.0961 62.7744C10.289 61.8045 10.7652 60.9136 11.4645 60.2143C12.1637 59.5151 13.0546 59.0388 14.0245 58.8459C14.9945 58.653 15.9998 58.752 16.9134 59.1304C17.827 59.5089 18.6079 60.1497 19.1573 60.972C19.7068 61.7942 20 62.7609 20 63.7498C20 65.0759 19.4732 66.3477 18.5355 67.2854C17.5979 68.2231 16.3261 68.7498 15 68.7498ZM15 56.2498C13.2293 56.2531 11.5168 56.8822 10.165 58.0258C8.81315 59.1695 7.90909 60.7542 7.6125 62.4998H5V53.7498H47.5V62.4998H22.3875C22.0909 60.7542 21.1868 59.1695 19.835 58.0258C18.4832 56.8822 16.7707 56.2531 15 56.2498ZM61.25 68.7498C60.2611 68.7498 59.2944 68.4566 58.4721 67.9072C57.6499 67.3578 57.009 66.5769 56.6306 65.6633C56.2522 64.7496 56.1531 63.7443 56.3461 62.7744C56.539 61.8045 57.0152 60.9136 57.7145 60.2143C58.4137 59.5151 59.3046 59.0388 60.2745 58.8459C61.2445 58.653 62.2498 58.752 63.1634 59.1304C64.077 59.5089 64.8579 60.1497 65.4073 60.972C65.9568 61.7942 66.25 62.7609 66.25 63.7498C66.25 65.0759 65.7232 66.3477 64.7855 67.2854C63.8479 68.2231 62.5761 68.7498 61.25 68.7498ZM73.75 62.4998H68.6375C68.3437 60.753 67.4404 59.1667 66.0879 58.0228C64.7355 56.8788 63.0214 56.251 61.25 56.251C59.4786 56.251 57.7645 56.8788 56.4121 58.0228C55.0596 59.1667 54.1563 60.753 53.8625 62.4998H50V31.2498H52.5V43.7498C52.5 44.0814 52.6317 44.3993 52.8661 44.6337C53.1005 44.8682 53.4185 44.9998 53.75 44.9998H74.9812C74.9812 45.0448 75 45.0886 75 45.1348V47.4998H70C69.337 47.4998 68.7011 47.7632 68.2322 48.2321C67.7634 48.7009 67.5 49.3368 67.5 49.9998V52.4998C67.5 53.1629 67.7634 53.7988 68.2322 54.2676C68.7011 54.7365 69.337 54.9998 70 54.9998H75V57.4998H71.25V59.9998H75V61.2498C75 61.5814 74.8683 61.8993 74.6339 62.1337C74.3995 62.3682 74.0815 62.4998 73.75 62.4998ZM75 49.9998V52.4998H70V49.9998H75Z" fill="#FFB11B"/>
    <path d="M13.52 48.7498H28.98C29.2346 49.4805 29.7102 50.1139 30.3409 50.5621C30.9717 51.0102 31.7262 51.251 32.5 51.251C33.2738 51.251 34.0283 51.0102 34.6591 50.5621C35.2898 50.1139 35.7654 49.4805 36.02 48.7498H38.75C39.0815 48.7498 39.3995 48.6181 39.6339 48.3837C39.8683 48.1493 40 47.8314 40 47.4998V42.4998C40.0003 42.1691 39.8695 41.8518 39.6362 41.6173L37.1475 39.1173C37.0313 39.0007 36.8931 38.9082 36.741 38.8452C36.5889 38.7821 36.4259 38.7497 36.2612 38.7498H34.2125L25.8137 31.5511C25.5872 31.3567 25.2985 31.2499 25 31.2498H14.045C13.3482 31.2474 12.6646 31.4403 12.0718 31.8066C11.479 32.1729 11.0008 32.698 10.6913 33.3223L7.9775 38.7498H5C4.33696 38.7498 3.70107 39.0132 3.23223 39.4821C2.76339 39.9509 2.5 40.5868 2.5 41.2498V47.4998C2.5 47.8314 2.6317 48.1493 2.86612 48.3837C3.10054 48.6181 3.41848 48.7498 3.75 48.7498H6.48C6.73456 49.4805 7.21019 50.1139 7.84093 50.5621C8.47167 51.0102 9.22625 51.251 10 51.251C10.7738 51.251 11.5283 51.0102 12.1591 50.5621C12.7898 50.1139 13.2654 49.4805 13.52 48.7498ZM32.5 48.7498C32.2528 48.7498 32.0111 48.6765 31.8055 48.5392C31.6 48.4018 31.4398 48.2066 31.3451 47.9782C31.2505 47.7498 31.2258 47.4985 31.274 47.256C31.3223 47.0135 31.4413 46.7908 31.6161 46.616C31.7909 46.4411 32.0137 46.3221 32.2561 46.2739C32.4986 46.2256 32.7499 46.2504 32.9784 46.345C33.2068 46.4396 33.402 46.5998 33.5393 46.8054C33.6767 47.0109 33.75 47.2526 33.75 47.4998C33.75 47.8314 33.6183 48.1493 33.3839 48.3837C33.1495 48.6181 32.8315 48.7498 32.5 48.7498ZM30.375 38.7498H21.25V33.7498H24.5375L30.375 38.7498ZM12.9275 34.4411C13.0305 34.2329 13.1899 34.0578 13.3874 33.9357C13.5849 33.8135 13.8127 33.7491 14.045 33.7498H18.75V38.7498H10.7725L12.9275 34.4411ZM5 41.2498H35.7425L37.5 43.0161V46.2498H36.02C35.7654 45.5192 35.2898 44.8858 34.6591 44.4376C34.0283 43.9894 33.2738 43.7487 32.5 43.7487C31.7262 43.7487 30.9717 43.9894 30.3409 44.4376C29.7102 44.8858 29.2346 45.5192 28.98 46.2498H13.52C13.2654 45.5192 12.7898 44.8858 12.1591 44.4376C11.5283 43.9894 10.7738 43.7487 10 43.7487C9.22625 43.7487 8.47167 43.9894 7.84093 44.4376C7.21019 44.8858 6.73456 45.5192 6.48 46.2498H5V41.2498ZM10 48.7498C9.75277 48.7498 9.5111 48.6765 9.30554 48.5392C9.09998 48.4018 8.93976 48.2066 8.84515 47.9782C8.75054 47.7498 8.72579 47.4985 8.77402 47.256C8.82225 47.0135 8.9413 46.7908 9.11612 46.616C9.29093 46.4411 9.51366 46.3221 9.75614 46.2739C9.99861 46.2256 10.2499 46.2504 10.4784 46.345C10.7068 46.4396 10.902 46.5998 11.0393 46.8054C11.1767 47.0109 11.25 47.2526 11.25 47.4998C11.25 47.8314 11.1183 48.1493 10.8839 48.3837C10.6495 48.6181 10.3315 48.7498 10 48.7498Z" fill="#FFB11B"/>
</svg>
