<svg width="50" height="50" viewBox="0 0 50 50" fill="none" xmlns="http://www.w3.org/2000/svg">
    <path d="M11.917 35.841L11.9171 35.8414C11.9216 35.8401 11.9635 35.8276 11.917 35.841Z" fill="#FFB11B"/>
    <path d="M11.9181 35.8414C11.9176 35.8416 11.9175 35.8416 11.9181 35.8414V35.8414Z" fill="#FFB11B"/>
    <path d="M42.8001 46.6515L42.3637 44.4603C42.2847 44.0637 41.8992 43.8057 41.5024 43.885C41.1057 43.964 40.8482 44.3496 40.9271 44.7463L41.3635 46.9376C41.5281 47.765 40.8948 48.535 40.0523 48.535H35.7891V45.2088C35.7891 44.8042 35.4613 44.4764 35.0567 44.4764C34.6522 44.4764 34.3243 44.8042 34.3243 45.2088V48.535H28.0334L27.0847 41.1879L27.5749 39.7471C27.8805 39.916 28.4656 40.671 29.4418 40.3748C29.8932 40.2376 30.2583 39.8947 30.4197 39.4425C31.2849 37.018 31.3662 36.7902 31.8201 35.5182C33.3675 35.9746 37.0539 37.062 37.1069 37.0777L37.1087 37.072C37.2108 37.1095 37.3237 37.142 37.6515 37.2382C38.3817 37.5158 39.6294 38.2329 39.9723 39.9506L40.2594 41.3927C40.3385 41.7895 40.724 42.0471 41.1207 41.9681C41.5175 41.8891 41.775 41.5035 41.6961 41.1069L41.4089 39.6642C40.9232 37.2316 39.1525 36.2348 38.1403 35.8572C38.0945 35.8402 38.5192 35.9676 31.6793 33.9494L29.6659 32.5879V31.3084C32.1883 29.9951 34.0707 27.6453 34.7688 24.8295C35.0431 24.9649 35.3503 25.0429 35.6762 25.0429C36.6685 25.0429 37.499 24.3376 37.6931 23.402C39.0072 22.6877 39.8342 21.3167 39.8342 19.7948C39.8342 18.911 39.5551 18.0782 39.0637 17.3951V14.0455C39.0637 10.2842 37.591 6.74833 34.9167 4.08945C32.2624 1.45039 28.7503 0 25.019 0C21.9187 0 18.9515 1.0042 16.4579 2.94892C16.139 3.19775 16.0821 3.658 16.3309 3.97685C16.5797 4.29589 17.0399 4.35273 17.3589 4.104C19.5636 2.38447 22.2112 1.46484 25.0188 1.46484C28.3601 1.46484 31.5062 2.76425 33.8838 5.12831C36.2795 7.51024 37.5988 10.677 37.5988 14.0455V15.8735C37.3896 15.3269 36.9551 14.8925 36.4085 14.6836V14.0455C36.4085 7.76493 31.2989 2.65507 25.0182 2.65507C18.7374 2.65507 13.6278 7.76493 13.6278 14.0455V14.6837C13.0811 14.8926 12.6466 15.327 12.4374 15.8735V14.1919C12.4374 11.3476 13.3519 8.65282 15.0821 6.39872C15.3283 6.07792 15.2679 5.61806 14.9471 5.37177C14.6261 5.12538 14.1664 5.18593 13.9201 5.50683C11.9918 8.01893 10.9727 11.0221 10.9727 14.1919V17.3952C10.4815 18.0782 10.2024 18.911 10.2024 19.7948C10.2024 21.3165 11.0293 22.6876 12.3434 23.402C12.4918 24.1173 13.013 24.6961 13.6933 24.93C13.8878 25.8377 14.3417 26.6832 15.0202 27.3949C15.6662 28.0725 16.4934 28.5861 17.422 28.9045C17.6473 29.1691 17.8865 29.4228 18.1395 29.6642C18.8114 30.3055 19.5524 30.8416 20.3436 31.2668V32.5995L18.3606 33.9406C12.5304 35.6599 11.9366 35.836 11.9178 35.8414L11.9184 35.8434C11.9021 35.8492 11.8862 35.8555 11.8708 35.8618L11.8691 35.8572C10.8568 36.2348 9.08607 37.2315 8.60023 39.6651L7.19809 46.7266C6.86127 48.4225 8.15961 49.9999 9.88558 49.9999H16.9547C17.3592 49.9999 17.6871 49.6721 17.6871 49.2675C17.6871 48.8629 17.3592 48.5351 16.9547 48.5351H15.7122V45.2089C15.7122 44.8043 15.3843 44.4765 14.9798 44.4765C14.5753 44.4765 14.2474 44.8043 14.2474 45.2089V48.5351H9.88568C9.08119 48.5351 8.47855 47.7999 8.635 47.0119L10.0369 39.9511C10.3799 38.2329 11.6279 37.5157 12.358 37.2384C13.2947 36.9621 16.6375 35.976 18.2048 35.5137C18.5364 36.4431 19.2819 38.532 19.6069 39.4426C19.7642 39.8833 20.1128 40.2316 20.5849 40.3749C21.4434 40.636 21.9053 40.128 22.4564 39.7437L22.9499 41.2015L22.003 48.5351H20.3726C19.9681 48.5351 19.6402 48.8629 19.6402 49.2675C19.6402 49.6721 19.9681 49.9999 20.3726 49.9999C21.3125 49.9999 39.0185 49.9999 40.0523 49.9999C41.8212 49.9999 43.1447 48.3828 42.8001 46.6515ZM37.736 18.0768C37.7509 18.0975 37.7668 18.1173 37.7836 18.1363C38.1543 18.5958 38.3691 19.1753 38.3691 19.7948C38.3691 20.4414 38.1371 21.0458 37.736 21.514V18.0768ZM12.2528 18.1362C12.2696 18.1173 12.2854 18.0975 12.3001 18.0769V21.514C11.8992 21.0457 11.6671 20.4415 11.6671 19.7949C11.6671 19.1754 11.8821 18.5959 12.2528 18.1362ZM14.9555 22.9831C14.9555 23.3112 14.6885 23.5783 14.3604 23.5783C14.0322 23.5783 13.7652 23.3113 13.7652 22.9831V22.9201V16.6698V16.6068C13.7652 16.2787 14.0322 16.0116 14.3604 16.0116C14.6885 16.0116 14.9555 16.2786 14.9555 16.6068V22.9831ZM30.4824 34.9086C30.352 35.2739 29.1975 38.5093 29.04 38.9504C29.0318 38.974 29.0037 38.9827 28.9828 38.9678L27.6448 37.9753L29.3214 34.1235L30.4824 34.9086ZM35.0809 16.6067C35.0809 16.2786 35.3478 16.0115 35.6761 16.0115C36.0042 16.0115 36.2713 16.2785 36.2713 16.6067V16.6697V22.92V22.983C36.2713 23.3111 36.0043 23.5782 35.6761 23.5782C35.3479 23.5782 35.0809 23.3112 35.0809 22.983V16.6067ZM15.1884 24.8679C15.2258 24.8514 15.2623 24.8334 15.2986 24.8148C15.3813 25.134 15.4796 25.4489 15.5924 25.7583C15.4153 25.4763 15.2795 25.1777 15.1884 24.8679ZM16.3244 15.0666C16.1613 15.0823 15.9989 15.1219 15.846 15.1834C15.6367 14.965 15.3802 14.7934 15.0927 14.6836V14.0455C15.0927 8.57254 19.5452 4.11991 25.0183 4.11991C30.4911 4.11991 34.9437 8.57244 34.9437 14.0455V14.6837C34.7607 14.7537 34.5906 14.8488 34.4368 14.9652C34.431 14.9597 34.4255 14.9547 34.4222 14.9516C34.4097 14.9405 34.3969 14.9298 34.3836 14.9195L31.2239 12.4594C30.5018 11.8972 29.6189 11.7561 28.8031 12.0731C26.6409 12.909 21.1042 14.8732 16.3991 15.0599C16.3739 15.0608 16.349 15.0631 16.3244 15.0666ZM19.9459 29.2784H22.092C22.3882 30.0533 23.1373 30.606 24.015 30.606H25.8756C27.0115 30.606 27.9356 29.6819 27.9356 28.5459C27.9356 27.41 27.0115 26.4859 25.8756 26.4859H24.015C23.1373 26.4859 22.3882 27.0386 22.092 27.8135H19.7005C19.2072 27.8135 18.7283 27.7505 18.276 27.6329C17.0958 26.1057 16.4365 24.2079 16.4365 22.2612V16.532C16.4513 16.5285 16.466 16.5257 16.4791 16.5241C16.4957 16.5235 16.5121 16.5223 16.5284 16.5208C21.4364 16.3088 27.1117 14.2975 29.3324 13.439C29.6615 13.3112 30.014 13.3738 30.3241 13.6154L33.4505 16.0497C33.4778 16.0836 33.5999 16.2512 33.5999 16.5257V22.3937C33.5999 27.1794 29.7177 31.0121 24.9477 30.9746C23.0942 30.9588 21.3606 30.3408 19.9459 29.2784ZM23.4199 28.5459C23.4199 28.2178 23.6869 27.9507 24.0151 27.9507H25.8757C26.2038 27.9507 26.4709 28.2177 26.4709 28.5459C26.4709 28.8741 26.2039 29.1412 25.8757 29.1412H24.0151C23.6869 29.1411 23.4199 28.8741 23.4199 28.5459ZM21.0438 38.9676C21.0235 38.9831 20.9951 38.9739 20.9865 38.9503C20.6368 37.9704 19.8692 35.8191 19.5443 34.9085L20.7087 34.121C23.5381 40.5206 20.6282 33.9261 22.3886 37.9701L21.0438 38.9676ZM21.8085 32.7886C21.8083 32.7882 21.8083 32.7883 21.8085 32.7886V32.7886ZM21.8249 32.8278C21.8239 32.8254 21.8194 32.8147 21.8084 32.7884V31.9072C22.8313 32.258 23.9122 32.44 25.019 32.44C26.0709 32.44 27.1536 32.2753 28.2008 31.9278V32.8294L26.2532 37.4841H23.78C22.2632 33.8716 21.8985 33.0031 21.8249 32.8278ZM26.299 38.9491L25.812 40.3807H24.2188L23.7341 38.9491H26.299ZM23.4801 48.5351L24.3438 41.8455H25.6924L26.5564 48.5351H23.4801Z" fill="#FFB11B"/>
</svg>
