<svg width="80" height="80" viewBox="0 0 80 80" fill="none" xmlns="http://www.w3.org/2000/svg">
    <g clip-path="url(#clip0)">
        <path d="M73.1848 17.6503C72.7017 16.9348 71.7306 16.7465 71.0154 17.2295C70.3003 17.7123 70.112 18.6836 70.5948 19.3987C80.4399 33.9819 78.5399 53.6118 66.0771 66.0746C59.1125 73.0393 49.8522 76.8749 40.0023 76.8749C30.1523 76.8749 20.8922 73.0395 13.9273 66.0747C6.9625 59.11 3.12699 49.8499 3.12699 39.9999C3.12699 30.1499 6.96266 20.8897 13.9273 13.9251C26.6152 1.23711 46.4691 -0.508689 61.1352 9.77393C61.8416 10.2694 62.8161 10.0982 63.3116 9.39158C63.8069 8.68501 63.6357 7.71062 62.9291 7.21515C55.3237 1.8829 46.0083 -0.631816 36.6996 0.135381C27.2813 0.911171 18.4092 5.02356 11.7176 11.7152C4.16263 19.2703 0.00195312 29.3153 0.00195312 39.9999C0.00195312 50.6846 4.16263 60.7295 11.7176 68.2846C19.2726 75.8395 29.3176 80.0002 40.0021 80.0002C50.6866 80.0002 60.7317 75.8395 68.2866 68.2846C81.8054 54.7657 83.8654 33.4709 73.1848 17.6503Z" fill="#FFB11B"/>
        <path d="M40.0039 7.42145C22.0401 7.42145 7.42542 22.0361 7.42542 40C7.42542 57.9638 22.0401 72.5785 40.0039 72.5785C57.9677 72.5785 72.5824 57.9638 72.5824 40C72.5824 22.0361 57.9677 7.42145 40.0039 7.42145ZM40.0039 69.4534C23.7633 69.4534 10.5505 56.2408 10.5505 40C10.5505 23.7591 23.7633 10.5465 40.0039 10.5465C56.2446 10.5465 69.4574 23.7591 69.4574 40C69.4574 56.2408 56.2446 69.4534 40.0039 69.4534Z" fill="#FFB11B"/>
        <path d="M49.9473 47.734L44.8133 42.6002C45.2333 41.8265 45.4721 40.9407 45.4721 40C45.4721 37.5275 43.822 35.4339 41.5658 34.7598V23.4373C41.5658 22.5744 40.8662 21.8748 40.0032 21.8748C39.1403 21.8748 38.4407 22.5744 38.4407 23.4373V34.7598C36.1844 35.4339 34.5344 37.5273 34.5344 40C34.5344 43.0155 36.9877 45.4688 40.0032 45.4688C40.9439 45.4688 41.8297 45.2301 42.6034 44.8101L47.7374 49.9439C48.0426 50.2491 48.4424 50.4016 48.8423 50.4016C49.2423 50.4016 49.6419 50.2489 49.9471 49.9439C50.5574 49.3334 50.5574 48.3442 49.9473 47.734ZM37.6596 40C37.6596 38.7077 38.711 37.6563 40.0034 37.6563C41.2958 37.6563 42.3472 38.7077 42.3472 40C42.3472 41.2924 41.2959 42.3438 40.0034 42.3438C38.711 42.3438 37.6596 41.2924 37.6596 40Z" fill="#FFB11B"/>
        <path d="M40.0027 18.4587C40.8657 18.4587 41.5652 17.7592 41.5652 16.8962V15.3138C41.5652 14.4509 40.8657 13.7513 40.0027 13.7513C39.1397 13.7513 38.4402 14.4509 38.4402 15.3138V16.8962C38.4402 17.7592 39.1397 18.4587 40.0027 18.4587Z" fill="#FFB11B"/>
        <path d="M29.0132 17.8398C28.5816 17.0923 27.6258 16.8363 26.8788 17.2679C26.1315 17.6995 25.8754 18.6549 26.3069 19.4023L27.0982 20.7728C27.3876 21.274 27.9127 21.5542 28.4527 21.5542C28.7177 21.5542 28.9866 21.4867 29.2326 21.3446C29.9799 20.9131 30.236 19.9576 29.8044 19.2103L29.0132 17.8398Z" fill="#FFB11B"/>
        <path d="M20.7766 27.0948L19.4062 26.3036C18.659 25.8722 17.7032 26.1281 17.2718 26.8754C16.8402 27.6228 17.0963 28.5783 17.8437 29.0098L19.2141 29.8011C19.4602 29.9431 19.7288 30.0106 19.994 30.0106C20.5338 30.0106 21.0591 29.7304 21.3485 29.229C21.7801 28.482 21.524 27.5264 20.7766 27.0948Z" fill="#FFB11B"/>
        <path d="M18.4621 40C18.4621 39.137 17.7626 38.4375 16.8996 38.4375H15.3171C14.4542 38.4375 13.7546 39.137 13.7546 40C13.7546 40.863 14.4542 41.5625 15.3171 41.5625H16.8996C17.7625 41.5625 18.4621 40.8628 18.4621 40Z" fill="#FFB11B"/>
        <path d="M19.2141 50.1986L17.8437 50.9899C17.0963 51.4213 16.8402 52.3769 17.2718 53.1243C17.5612 53.6255 18.0863 53.9057 18.6263 53.9057C18.8913 53.9057 19.1601 53.8382 19.4062 53.6962L20.7766 52.9049C21.524 52.4735 21.7801 51.5179 21.3485 50.7705C20.9171 50.023 19.9613 49.7669 19.2141 50.1986Z" fill="#FFB11B"/>
        <path d="M29.2328 58.6551C28.4857 58.2237 27.53 58.4797 27.0984 59.227L26.3071 60.5975C25.8756 61.3448 26.1318 62.3004 26.879 62.7319C27.1251 62.8739 27.3937 62.9414 27.6589 62.9414C28.1989 62.9414 28.724 62.6612 29.0134 62.16L29.8046 60.7895C30.2362 60.0422 29.98 59.0865 29.2328 58.6551Z" fill="#FFB11B"/>
        <path d="M40.0027 61.5411C39.1397 61.5411 38.4402 62.2407 38.4402 63.1036V64.686C38.4402 65.5489 39.1397 66.2485 40.0027 66.2485C40.8657 66.2485 41.5652 65.5489 41.5652 64.686V63.1036C41.565 62.2407 40.8657 61.5411 40.0027 61.5411Z" fill="#FFB11B"/>
        <path d="M52.9085 59.2271C52.4773 58.48 51.5221 58.2239 50.7742 58.6551C50.027 59.0865 49.7707 60.0421 50.2023 60.7895L50.9934 62.16C51.2828 62.6612 51.8079 62.9415 52.3481 62.9415C52.6131 62.9415 52.8817 62.874 53.1278 62.732C53.8749 62.3006 54.1312 61.3448 53.6996 60.5976L52.9085 59.2271Z" fill="#FFB11B"/>
        <path d="M62.1641 50.9897L60.7936 50.1985C60.046 49.7668 59.0906 50.023 58.6592 50.7704C58.2277 51.5177 58.4838 52.4733 59.2311 52.9047L60.6016 53.696C60.8477 53.8382 61.1163 53.9055 61.3813 53.9055C61.9213 53.9055 62.4466 53.6254 62.736 53.1241C63.1674 52.3768 62.9114 51.4211 62.1641 50.9897Z" fill="#FFB11B"/>
        <path d="M61.5446 40C61.5446 40.863 62.2442 41.5625 63.1071 41.5625H64.6896C65.5524 41.5625 66.2521 40.863 66.2521 40C66.2521 39.137 65.5524 38.4375 64.6896 38.4375H63.1071C62.2441 38.4375 61.5446 39.137 61.5446 40Z" fill="#FFB11B"/>
        <path d="M59.2311 27.0949C58.4838 27.5265 58.2277 28.4819 58.6592 29.2293C58.9488 29.7307 59.4738 30.0108 60.0139 30.0108C60.2789 30.0108 60.5477 29.9433 60.7936 29.8013L62.1641 29.0101C62.9114 28.5785 63.1675 27.623 62.7359 26.8757C62.3044 26.1283 61.3491 25.8724 60.6016 26.3038L59.2311 27.0949Z" fill="#FFB11B"/>
        <path d="M53.1276 17.2679C52.3801 16.8362 51.4246 17.0925 50.9932 17.8398L50.2021 19.2103C49.7705 19.9576 50.0266 20.9133 50.774 21.3447C51.0201 21.4868 51.2886 21.5542 51.5536 21.5542C52.0936 21.5542 52.619 21.274 52.9083 20.7728L53.6996 19.4023C54.131 18.655 53.8751 17.6994 53.1276 17.2679Z" fill="#FFB11B"/>
        <path d="M67.3551 14.6779C68.2173 14.6779 68.9163 13.9789 68.9163 13.1167C68.9163 12.2544 68.2173 11.5554 67.3551 11.5554C66.4928 11.5554 65.7938 12.2544 65.7938 13.1167C65.7938 13.9789 66.4928 14.6779 67.3551 14.6779Z" fill="#FFB11B"/>
    </g>
    <defs>
        <clipPath id="clip0">
            <rect width="80" height="80" fill="white"/>
        </clipPath>
    </defs>
</svg>
