<svg width="60" height="60" viewBox="0 0 60 60" fill="none" xmlns="http://www.w3.org/2000/svg">
    <path d="M25.8677 25.4832C21.2086 25.4832 17.4181 29.2736 17.4181 33.9327C17.4181 38.5918 21.2086 42.3823 25.8677 42.3823C30.5268 42.3823 34.3172 38.5918 34.3172 33.9327C34.3172 29.2736 30.5268 25.4832 25.8677 25.4832ZM25.8677 39.9698C22.5388 39.9698 19.8306 37.2615 19.8306 33.9327C19.8306 30.604 22.5389 27.8957 25.8677 27.8957C29.1964 27.8957 31.9047 30.6039 31.9047 33.9327C31.9047 37.2616 29.1965 39.9698 25.8677 39.9698Z" fill="#FFB11B"/>
    <path d="M25.8679 21.6931C19.119 21.6931 13.6284 27.1837 13.6284 33.9326C13.6284 40.6815 19.119 46.1721 25.8679 46.1721C32.6168 46.1721 38.1074 40.6815 38.1074 33.9326C38.1074 27.1837 32.6168 21.6931 25.8679 21.6931ZM25.8679 43.7596C20.4493 43.7596 16.0409 39.3513 16.0409 33.9326C16.0409 28.514 20.4494 24.1056 25.8679 24.1056C31.2864 24.1056 35.6949 28.514 35.6949 33.9326C35.6949 39.3513 31.2866 43.7596 25.8679 43.7596Z" fill="#FFB11B"/>
    <path d="M58.7937 14.5209H56.1051C55.8278 13.6429 55.4748 12.791 55.0495 11.9737L56.9514 10.0718C57.4225 9.60073 57.4225 8.83703 56.9514 8.36592L51.8342 3.2487C51.3631 2.77759 50.5994 2.77759 50.1282 3.2487L48.226 5.15084C47.4079 4.7253 46.5565 4.37227 45.6804 4.09523V1.40621C45.6804 0.739953 45.1404 0.199951 44.4741 0.199951H37.2365C36.5703 0.199951 36.0303 0.739953 36.0303 1.40621V4.09496C35.1536 4.37213 34.3019 4.72517 33.4833 5.15084L31.5811 3.2487C31.11 2.77759 30.3463 2.77759 29.8752 3.2487L25.0586 8.0653H22.2981C21.6318 8.0653 21.0918 8.6053 21.0918 9.27156V12.4805C20.4793 12.6162 19.8729 12.778 19.2763 12.9651L17.6728 10.1878C17.5127 9.91074 17.2492 9.70849 16.9403 9.62579C16.6314 9.5431 16.3021 9.58639 16.0249 9.74629L9.84254 13.3153C9.5655 13.4754 9.36325 13.7389 9.28055 14.0478C9.19773 14.3569 9.24115 14.6861 9.40105 14.9632L11.0079 17.7463C10.5474 18.1695 10.1043 18.6126 9.68117 19.0731L6.89806 17.4662C6.62089 17.3062 6.29185 17.263 5.98264 17.3457C5.67371 17.4285 5.41021 17.6307 5.25018 17.9077L1.68086 24.09C1.34779 24.667 1.54549 25.4047 2.12235 25.7378L4.89969 27.3413C4.71272 27.9379 4.55081 28.5445 4.41504 29.157H1.20626C0.540002 29.157 0 29.697 0 30.3633V37.502C0 38.1683 0.540002 38.7083 1.20626 38.7083H4.41504C4.55081 39.3208 4.71272 39.9274 4.89969 40.524L2.12235 42.1274C1.84531 42.2874 1.64306 42.5509 1.56036 42.8598C1.47753 43.1689 1.52096 43.4981 1.68086 43.7753L5.25018 49.9576C5.58337 50.5346 6.3212 50.7322 6.89793 50.3991L9.68103 48.7924C10.104 49.2527 10.5473 49.696 11.0078 50.1191L9.40091 52.9022C9.24102 53.1793 9.19759 53.5086 9.28042 53.8176C9.36325 54.1266 9.56537 54.3901 9.8424 54.5501L16.0247 58.1194C16.6016 58.4525 17.3394 58.2549 17.6725 57.6779L19.2759 54.9006C19.8726 55.0877 20.4791 55.2496 21.0916 55.3852V58.594C21.0916 59.2603 21.6316 59.8003 22.2978 59.8003H29.4366C30.1029 59.8003 30.6429 59.2603 30.6429 58.594V55.3852C31.2554 55.2495 31.862 55.0876 32.4586 54.9006L34.0619 57.6779C34.3953 58.2549 35.133 58.4525 35.7097 58.1194L41.892 54.5501C42.1691 54.3901 42.3713 54.1266 42.454 53.8176C42.5368 53.5086 42.4934 53.1793 42.3335 52.9022L40.7267 50.1191C41.1872 49.696 41.6304 49.2527 42.0534 48.7924L44.8365 50.3991C45.4136 50.7323 46.1513 50.5345 46.4843 49.9576L50.0536 43.7753C50.2136 43.4982 50.2569 43.1689 50.1741 42.8598C50.0913 42.5509 49.8891 42.2874 49.6121 42.1274L46.8348 40.524C47.0217 39.9274 47.1836 39.3208 47.3194 38.7083H50.5289C51.1951 38.7083 51.7351 38.1683 51.7351 37.502V35.5311C51.7694 35.5037 51.8028 35.4746 51.8342 35.4432L56.9514 30.3247C57.4224 29.8536 57.4224 29.0899 56.9512 28.6189L55.0496 26.7171C55.4745 25.9009 55.8274 25.0494 56.105 24.1709H58.7937C59.46 24.1709 60 23.6309 60 22.9646V15.7271C60 15.0609 59.4599 14.5209 58.7937 14.5209ZM49.3226 36.2958H46.3288C45.742 36.2958 45.2403 36.718 45.1402 37.296C44.9415 38.4433 44.6394 39.5747 44.2424 40.659C44.0408 41.2095 44.2642 41.8253 44.7719 42.1184L47.3618 43.6136L44.9986 47.7067L42.4032 46.2083C41.8958 45.9156 41.2511 46.0295 40.875 46.4788C40.131 47.3678 39.3029 48.1959 38.4136 48.9402C37.9642 49.3163 37.8501 49.961 38.1431 50.4684L39.6416 53.0637L35.5485 55.4268L34.0532 52.8371C33.76 52.3292 33.1441 52.1059 32.5938 52.3075C31.5095 52.7045 30.378 53.0066 29.231 53.2053C28.6529 53.3055 28.2306 53.807 28.2306 54.3938V57.3876H23.5044V54.3938C23.5044 53.807 23.0822 53.3054 22.504 53.2053C21.357 53.0066 20.2255 52.7045 19.1412 52.3075C18.5906 52.1059 17.9749 52.3294 17.6817 52.8371L16.1865 55.4268L12.0934 53.0637L13.5919 50.4684C13.8848 49.961 13.7708 49.3163 13.3214 48.9402C12.432 48.1958 11.6039 47.3678 10.86 46.4788C10.4837 46.0294 9.83919 45.9153 9.33175 46.2083L6.73642 47.7067L4.37336 43.6138L6.96306 42.1185C7.47076 41.8253 7.69419 41.2095 7.49261 40.6591C7.09562 39.5748 6.79352 38.4433 6.59489 37.2963C6.49463 36.7182 5.9931 36.2959 5.40632 36.2959H2.41252V31.5697H5.40632C5.9931 31.5697 6.49477 31.1475 6.59489 30.5693C6.79352 29.4221 7.09562 28.2908 7.49261 27.2065C7.69419 26.656 7.47076 26.0402 6.96306 25.747L4.37323 24.2518L6.73642 20.1587L9.33175 21.6572C9.83932 21.9501 10.4837 21.836 10.86 21.3867C11.6043 20.4974 12.4324 19.6692 13.3214 18.9252C13.7708 18.5492 13.8848 17.9045 13.5919 17.3971L12.0934 14.8017L16.1865 12.4385L17.6817 15.0282C17.9749 15.5359 18.5903 15.7594 19.1412 15.5579C20.2256 15.1609 21.3571 14.8588 22.5041 14.66C23.0822 14.5599 23.5044 14.0583 23.5044 13.4715V10.4777H28.2306V13.4715C28.2306 14.0583 28.6528 14.5599 29.2309 14.66C30.378 14.8588 31.5095 15.1609 32.5938 15.5579C33.1441 15.7595 33.7601 15.5361 34.0532 15.0284L35.5485 12.4387L39.6416 14.8019L38.1431 17.3972C37.8501 17.9046 37.9643 18.5493 38.4136 18.9254C39.3027 19.6695 40.1309 20.4977 40.875 21.3868C41.2511 21.8362 41.8958 21.95 42.4032 21.6573L44.9987 20.1588L47.3618 24.252L44.7719 25.7472C44.2642 26.0404 44.0408 26.6562 44.2424 27.2066C44.6394 28.2908 44.9415 29.4222 45.1402 30.5695C45.2403 31.1476 45.742 31.5698 46.3288 31.5698H49.3226V36.2958ZM57.5875 21.7585H55.1937C54.6409 21.7585 54.1589 22.1343 54.0239 22.6704C53.7015 23.9517 53.1946 25.1747 52.517 26.3054C52.2328 26.78 52.3077 27.3872 52.6989 27.7783L54.3926 29.472L51.7351 32.1302V30.3634C51.7351 29.6971 51.1951 29.1571 50.5289 29.1571H47.3199C47.1842 28.5446 47.0223 27.938 46.8353 27.3415L49.6126 25.7379C49.8897 25.5779 50.0919 25.3144 50.1746 25.0055C50.2574 24.6965 50.214 24.3672 50.0541 24.0902L46.4848 17.9078C46.1516 17.3308 45.4139 17.1334 44.8371 17.4663L42.0539 19.0732C41.631 18.6127 41.1877 18.1695 40.7272 17.7465L42.3341 14.9634C42.494 14.6863 42.5374 14.357 42.4546 14.0479C42.3717 13.739 42.1696 13.4755 41.8926 13.3155L35.7102 9.74602C35.4332 9.58599 35.104 9.5427 34.7948 9.62553C34.4859 9.70836 34.2224 9.91047 34.0623 10.1875L32.4588 12.9649C31.8623 12.7778 31.2556 12.616 30.6433 12.4802V9.27142C30.6433 8.60517 30.1033 8.06516 29.437 8.06516H28.4705L30.7282 5.80745L32.4218 7.50104C32.8127 7.892 33.4189 7.96705 33.8933 7.68372C35.0307 7.00419 36.2545 6.49703 37.5307 6.17616C38.067 6.04133 38.4429 5.55923 38.4429 5.00622V2.61247H43.268V5.00622C43.268 5.55909 43.6438 6.04106 44.1799 6.17603C45.4556 6.49703 46.679 7.00432 47.8161 7.68372C48.2906 7.96719 48.8971 7.892 49.2876 7.50104L50.9812 5.80745L54.3925 9.21875L52.6989 10.9123C52.308 11.3033 52.2328 11.9102 52.5168 12.3846C53.1951 13.5181 53.7021 14.7415 54.0238 16.0211C54.1586 16.5574 54.6407 16.9333 55.1937 16.9333H57.5875V21.7585Z" fill="#FFB11B"/>
</svg>
