<svg width="50" height="50" viewBox="0 0 50 50" fill="none" xmlns="http://www.w3.org/2000/svg">
    <path d="M49.9073 11.8565C49.7352 11.2165 49.3153 10.671 48.7409 10.3402C48.166 10.0078 47.4826 9.91791 46.8414 10.09C46.201 10.2625 45.6555 10.6819 45.3247 11.2564L44.9081 11.9814C44.5123 11.7539 44.0066 11.8878 43.7751 12.2816L41.6588 15.889L40.9338 15.4724C40.7418 15.3613 40.5131 15.3312 40.2991 15.389C40.0847 15.4472 39.9025 15.5879 39.7922 15.7808C39.5664 16.179 39.7039 16.6851 40.1006 16.9138L40.8256 17.3304L33.7434 29.6033L31.9937 34.2778L31.1605 35.8355C30.6727 36.6842 30.7248 37.7391 31.2939 38.5353L29.4192 40.8347L28.8944 39.5186C28.6576 38.9319 28.1096 38.53 27.4795 38.4808C26.8489 38.4311 26.2447 38.7428 25.9197 39.2851L25.6198 39.7932L25.3367 36.4604C25.2716 35.672 24.6609 35.0381 23.8757 34.9429C23.0902 34.8482 22.3465 35.3189 22.0954 36.0691L20.0458 42.2179C19.9026 42.6528 20.137 43.1215 20.5706 43.2679C20.652 43.3058 20.7395 43.3286 20.829 43.3343C21.187 43.3355 21.5059 43.1072 21.6207 42.7679L23.6617 36.6191L23.9534 40.0015C24.0137 40.7232 24.5324 41.3233 25.2378 41.4868C25.9433 41.6504 26.6731 41.3396 27.0446 40.7183L27.3529 40.2098L27.8696 41.5182C28.0889 42.0694 28.5848 42.4628 29.1719 42.5503C29.7589 42.6378 30.348 42.4063 30.7191 41.9429L32.6605 39.4852C32.8753 39.5414 33.0966 39.5694 33.3187 39.5686C34.2117 39.5755 35.0408 39.1052 35.4932 38.3351L36.3264 36.9437L39.5009 33.0862L46.6579 20.6631L47.3829 21.0797C47.5761 21.1904 47.7169 21.3731 47.7743 21.5883C47.832 21.8019 47.8019 22.0297 47.6913 22.2213L44.3585 27.9955C44.2328 28.1851 44.1901 28.4178 44.2405 28.6399C44.291 28.8616 44.4297 29.0532 44.625 29.17C44.817 29.2815 45.0456 29.3116 45.2596 29.2538C45.474 29.1956 45.6563 29.0549 45.7665 28.862L49.0993 23.0879C49.4317 22.513 49.5216 21.8295 49.3491 21.1884C49.1766 20.548 48.7572 20.0025 48.1827 19.6717L47.4577 19.2551L49.5407 15.6473C49.7681 15.2515 49.6343 14.7462 49.2409 14.5143L49.6575 13.7893C49.9988 13.2055 50.0891 12.5082 49.9073 11.8565ZM46.7661 12.0896C46.8764 11.8967 47.0595 11.7556 47.2747 11.6982C47.4887 11.6453 47.7149 11.675 47.9077 11.7816C48.1009 11.8919 48.2417 12.0749 48.2995 12.2897C48.3524 12.5037 48.3227 12.7299 48.2161 12.9228L47.7995 13.6477L46.3495 12.8145L46.7661 12.0896ZM35.4098 35.3526L34.9932 35.111L33.7601 34.3941L34.9432 31.2282L37.5677 32.7444L35.4098 35.3526ZM32.9103 37.7603C32.5583 37.5149 32.4501 37.043 32.6605 36.6687L33.0771 35.9442L34.5266 36.7773L34.11 37.4938C33.9932 37.6964 33.7971 37.8404 33.5689 37.8913C33.3407 37.9417 33.1019 37.8945 32.9103 37.7603ZM38.5176 31.3783L35.6348 29.7119L42.3003 18.1636L45.1831 19.83L38.5176 31.3783ZM46.0163 18.3886L43.1335 16.7222L44.7999 13.8394L47.6827 15.5057L46.0163 18.3886Z" fill="#FFB11B"/>
    <path d="M13.1478 37.3436L10.1987 40.285L8.43221 38.5186C8.10715 38.1955 7.58234 38.1955 7.25728 38.5186C7.09943 38.6752 7.01074 38.888 7.01074 39.1101C7.01074 39.3322 7.09943 39.5454 7.25728 39.7016L9.02375 41.4681C9.33619 41.7781 9.75849 41.9518 10.1987 41.9514C10.6413 41.9538 11.0673 41.7801 11.3817 41.4681L14.3227 38.5186C14.6059 38.1878 14.5868 37.6951 14.2792 37.3876C13.9712 37.0796 13.4786 37.0605 13.1478 37.3436Z" fill="#FFB11B"/>
    <path d="M3.33313 39.5848C3.33313 43.4965 6.50398 46.6669 10.4153 46.6669C14.3265 46.6669 17.4974 43.4965 17.4974 39.5848C17.4974 39.1247 17.1243 38.7516 16.6642 38.7516C16.2041 38.7516 15.831 39.1247 15.831 39.5848C15.831 42.5758 13.4063 45.0006 10.4153 45.0006C7.42423 45.0006 4.99951 42.5758 4.99951 39.5848C4.99951 36.5938 7.42423 34.1691 10.4153 34.1691C11.5877 34.1658 12.7289 34.5462 13.6646 35.2525C14.0328 35.5287 14.5552 35.4539 14.831 35.0857C15.1072 34.7175 15.0328 34.1955 14.6646 33.9193C12.5186 32.3099 9.64716 32.0511 7.24807 33.2505C4.84858 34.4502 3.33313 36.9026 3.33313 39.5848Z" fill="#FFB11B"/>
    <path d="M29.9944 6.67383C30.4545 6.67383 30.8276 6.30117 30.8276 5.84064C30.8276 5.38051 30.4545 5.00745 29.9944 5.00745H8.33142C7.87129 5.00745 7.49823 5.38051 7.49823 5.84064V9.1734C7.49823 9.63394 7.87129 10.0066 8.33142 10.0066H29.9944C30.4545 10.0066 30.8276 9.63394 30.8276 9.1734C30.8276 8.71328 30.4545 8.34021 29.9944 8.34021H9.16461V6.67383H29.9944Z" fill="#FFB11B"/>
    <path d="M10.8308 11.6731C10.3707 11.6731 9.99762 12.0462 9.99762 12.5063C9.99762 12.9668 10.3707 13.3395 10.8308 13.3395H27.4946C27.9548 13.3395 28.3278 12.9668 28.3278 12.5063C28.3278 12.0462 27.9548 11.6731 27.4946 11.6731H10.8308Z" fill="#FFB11B"/>
    <path d="M32.4942 17.5054H14.1639C13.7038 17.5054 13.3307 17.8784 13.3307 18.3386C13.3307 18.7991 13.7038 19.1717 14.1639 19.1717H32.4942C32.9543 19.1717 33.3273 18.7991 33.3273 18.3386C33.3273 17.8784 32.9543 17.5054 32.4942 17.5054Z" fill="#FFB11B"/>
    <path d="M24.1627 23.3376C24.1627 22.8775 23.7897 22.5044 23.3295 22.5044H6.66571C6.20558 22.5044 5.83252 22.8775 5.83252 23.3376C5.83252 23.7981 6.20558 24.1708 6.66571 24.1708H23.3295C23.7897 24.1708 24.1627 23.7981 24.1627 23.3376Z" fill="#FFB11B"/>
    <path d="M32.4951 22.5044H26.6628C26.2027 22.5044 25.8296 22.8775 25.8296 23.3376C25.8296 23.7981 26.2027 24.1708 26.6628 24.1708H32.4951C32.9552 24.1708 33.3283 23.7981 33.3283 23.3376C33.3283 22.8775 32.9552 22.5044 32.4951 22.5044Z" fill="#FFB11B"/>
    <path d="M14.9976 28.3368C15.4578 28.3368 15.8308 27.9642 15.8308 27.5036C15.8308 27.0435 15.4578 26.6704 14.9976 26.6704H6.66571C6.20558 26.6704 5.83252 27.0435 5.83252 27.5036C5.83252 27.9642 6.20558 28.3368 6.66571 28.3368H14.9976Z" fill="#FFB11B"/>
    <path d="M18.3308 28.3368H24.1632C24.6233 28.3368 24.9963 27.9642 24.9963 27.5036C24.9963 27.0435 24.6233 26.6704 24.1632 26.6704H18.3308C17.8707 26.6704 17.4976 27.0435 17.4976 27.5036C17.4976 27.9642 17.8707 28.3368 18.3308 28.3368Z" fill="#FFB11B"/>
    <path d="M37.4936 38.3352C37.0335 38.3352 36.6604 38.7083 36.6604 39.1684V47.5003C36.6604 47.9609 36.2874 48.3335 35.8272 48.3335H2.49957C2.03945 48.3335 1.66638 47.9609 1.66638 47.5003V2.508C1.66638 2.04787 2.03945 1.67481 2.49957 1.67481H35.8272C36.2874 1.67481 36.6604 2.04787 36.6604 2.508V18.1556C36.6604 18.6157 37.0335 18.9888 37.4936 18.9888C37.9537 18.9888 38.3268 18.6157 38.3268 18.1556V2.508C38.3268 1.12762 37.2076 0.00842285 35.8272 0.00842285H2.49957C1.11919 0.00842285 0 1.12762 0 2.508V47.5003C0 48.8811 1.11919 49.9999 2.49957 49.9999H35.8272C37.2076 49.9999 38.3268 48.8811 38.3268 47.5003V39.1684C38.3268 38.7083 37.9537 38.3352 37.4936 38.3352Z" fill="#FFB11B"/>
</svg>
