<svg width="50" height="50" viewBox="0 0 50 50" fill="none" xmlns="http://www.w3.org/2000/svg">
    <g clip-path="url(#clip0)">
        <path d="M32.4489 31.6196C30.5416 31.7263 28.6269 31.5781 26.7589 31.1795L24.7096 30.7421C24.6592 30.7315 24.6079 30.726 24.5564 30.726L17.9411 30.7258C17.7968 30.7258 17.6556 30.7684 17.5352 30.8481L13.1839 33.7327C12.1409 34.4243 10.7565 34.1666 10.0321 33.146C9.37371 32.2185 9.48456 30.9666 10.2958 30.1693L14.7044 25.8361L20.8885 22.3391C20.9321 22.3144 20.9731 22.2854 21.0108 22.2524L21.5135 21.8124C21.5512 21.7794 21.5853 21.7426 21.6155 21.7027L26.8637 14.7603L29.0717 15.9815C29.1843 16.0439 29.3063 16.0734 29.4264 16.0734C29.6851 16.0734 29.9357 15.9367 30.0697 15.6943C30.266 15.3395 30.1375 14.8926 29.7825 14.6963L27.7585 13.5767L30.5057 9.94255C30.8633 9.4695 31.0154 8.8854 30.9337 8.29807C30.8522 7.71064 30.5467 7.19029 30.0736 6.83259L28.6529 5.75849C28.1798 5.40088 27.5962 5.24891 27.0083 5.33048C26.421 5.41214 25.9005 5.71766 25.5429 6.19071L22.259 10.5348L21.5954 10.1678C21.3334 10.0228 21.0368 9.94618 20.7373 9.94618H15.5138C14.6905 9.94618 13.891 10.2391 13.2626 10.771L8.96459 14.4082C8.65497 14.6703 8.61639 15.1335 8.87833 15.4432C9.02364 15.6148 9.23084 15.7031 9.43932 15.7031C9.60686 15.7031 9.77548 15.6461 9.91335 15.5293L14.2114 11.8921C14.575 11.5844 15.0376 11.415 15.5138 11.415H20.7373C20.7886 11.415 20.8396 11.4281 20.8845 11.4531L21.3642 11.7184L16.6462 17.9594L10.1898 21.5657C9.98082 21.6823 9.84187 21.8935 9.81739 22.1315L9.07583 29.3239C8.4557 30.0278 8.13599 30.9092 8.13325 31.7984L8.06245 31.9716C7.80736 32.5956 7.20701 32.9987 6.53292 32.9987C5.62177 32.9987 4.88051 32.2575 4.88051 31.3463V21.7932C4.88051 20.5191 5.43827 19.3163 6.41091 18.4933L7.5184 17.5562C7.82803 17.2942 7.86671 16.8308 7.60467 16.5212C7.34273 16.2117 6.87947 16.1731 6.56964 16.4349L5.46216 17.3721C4.15903 18.4749 3.41179 20.0864 3.41179 21.7932V31.3463C3.41179 32.3594 3.89728 33.261 4.64746 33.8315L1.32314 38.229C1.17587 38.4237 1.0706 38.6528 1.01851 38.8914L0.0238256 43.4516C-0.0606802 43.8393 0.0814032 44.2314 0.39475 44.4749C0.578744 44.6178 0.797793 44.6909 1.01919 44.6909C1.04132 44.6909 26.8689 44.6902 26.8689 44.6902C27.2745 44.6902 27.6033 44.3615 27.6033 43.9558C27.6033 43.5501 27.2745 43.2214 26.8689 43.2214H4.19066L5.7004 42.4645C5.93228 42.3482 6.13762 42.1773 6.294 41.9703L11.1723 35.5174C11.4135 35.5654 11.6591 35.5913 11.906 35.5913C12.6233 35.5913 13.3495 35.3854 13.9957 34.9569L18.1625 32.1946L24.479 32.1948L26.4524 32.616C28.448 33.0418 30.4929 33.2001 32.531 33.0862C32.9359 33.0635 33.246 32.7169 33.2232 32.3119C33.2006 31.9069 32.8535 31.5977 32.4489 31.6196ZM20.4894 20.7568L20.1001 21.0976L13.8972 24.6051C13.8413 24.6368 13.7896 24.6756 13.7438 24.7207L12.3135 26.1265L21.7501 13.6436L24.3846 15.6041L20.4894 20.7568ZM24.0411 10.6131L26.6755 12.5737L25.2703 14.4325L22.6358 12.472L24.0411 10.6131ZM26.7146 7.0766C26.8357 6.9164 27.0118 6.8131 27.2106 6.78539C27.2457 6.78049 27.2808 6.77814 27.3156 6.77814C27.478 6.77814 27.6353 6.83053 27.7671 6.93021L29.1878 8.00431C29.5183 8.2542 29.584 8.72628 29.3341 9.05686L27.5613 11.4021L24.9269 9.44149L26.7146 7.0766ZM14.4449 20.8715L10.9468 25.4989L11.2393 22.662L14.4449 20.8715ZM2.28022 39.9994L4.08314 41.6323L1.65901 42.8476L2.28022 39.9994ZM5.34348 40.7922L2.89996 38.5789L6.03784 34.4281C6.19921 34.4539 6.3644 34.4677 6.53292 34.4677C7.32569 34.4677 8.06294 34.1709 8.62344 33.6632C8.68758 33.7765 8.7573 33.8878 8.83426 33.9961C9.10021 34.3708 9.421 34.6816 9.77704 34.9273L5.34348 40.7922Z" fill="#FFB11B"/>
        <path d="M49.2646 32.561H42.5279C42.1619 32.561 41.8526 32.1349 41.8526 31.6305V18.1712C41.8526 17.6669 42.1618 17.2408 42.5279 17.2408H49.2646C49.6703 17.2408 49.999 16.9121 49.999 16.5064C49.999 16.1007 49.6703 15.772 49.2646 15.772H42.5279C41.5762 15.772 40.7677 16.4697 40.4885 17.4318H34.7278L32.5355 16.2193C32.1806 16.0231 31.7337 16.1518 31.5374 16.5066C31.3412 16.8615 31.4697 17.3084 31.8247 17.5047L34.1828 18.8089C34.2916 18.869 34.4139 18.9006 34.5383 18.9006H40.3839V30.3628H38.7371C38.6591 30.3628 38.5814 30.3752 38.5073 30.3997L37.9805 30.5732C37.161 30.8432 36.3128 31.0663 35.4596 31.2365C35.0619 31.3159 34.8037 31.7027 34.8831 32.1005C34.9528 32.4497 35.2596 32.6912 35.6026 32.6912C35.6502 32.6912 35.6986 32.6866 35.7471 32.6769C36.6584 32.4951 37.5644 32.2566 38.4401 31.9681L38.855 31.8314H40.392C40.4838 33.0605 41.4063 34.0295 42.528 34.0295H49.2647C49.6704 34.0295 49.9991 33.7008 49.9991 33.2951C49.9991 32.8894 49.6703 32.561 49.2646 32.561Z" fill="#FFB11B"/>
    </g>
    <defs>
        <clipPath id="clip0">
            <rect width="50" height="50" fill="white"/>
        </clipPath>
    </defs>
</svg>
