<svg width="60" height="60" viewBox="0 0 60 60" fill="none" xmlns="http://www.w3.org/2000/svg">
    <path d="M54.2663 30.7277L57.3306 30.3576C58.8524 30.1739 59.9999 28.8794 59.9999 27.3465C59.9999 25.6741 58.6393 24.3135 56.9669 24.3135H54.8322C53.5278 24.3135 52.4132 25.1412 51.9859 26.299L49.0004 19.7642C47.8928 17.337 45.6791 15.5325 43.0784 14.9367C42.9581 14.9092 42.8269 14.8823 42.6875 14.856C42.4371 8.07366 36.8423 2.63281 29.9997 2.63281C23.1572 2.63281 17.5623 8.07353 17.312 14.856C17.172 14.8824 17.0405 14.9092 16.9199 14.9369C14.3196 15.5329 12.1061 17.3376 10.9985 19.7648L8.01313 26.298C7.58542 25.1408 6.47119 24.3136 5.16713 24.3136H3.03302C1.36053 24.3135 0 25.674 0 27.3463C0 28.8792 1.1475 30.1737 2.6693 30.3574L5.73368 30.7275L2.80291 33.6583C1.37825 35.083 0.696711 37.1243 0.979602 39.119L1.98202 46.1867C2.23967 48.0033 3.18141 49.5874 4.52052 50.6948V53.9047C4.52052 55.814 6.07381 57.3672 7.98304 57.3672H13.7249C15.6341 57.3672 17.1874 55.814 17.1874 53.9047V52.3457H42.8132V53.9047C42.8132 55.814 44.3665 57.3672 46.2758 57.3672H52.0162C53.9254 57.3672 55.4787 55.814 55.4787 53.9047V50.6951C56.8181 49.5879 57.7601 48.0035 58.0177 46.1867L59.0201 39.119C59.303 37.1244 58.6215 35.083 57.1968 33.6584L54.2663 30.7277ZM50.9239 50.0508H9.07611C6.75688 50.0508 4.75089 48.3846 4.30074 46.1328H55.6993C55.2491 48.3846 53.2431 50.0508 50.9239 50.0508ZM43.5176 40.1049L44.684 43.8382H43.0947L41.9284 40.1049H43.5176ZM39.5242 40.1049L40.6906 43.8382H19.309L20.4754 40.1049H39.5242ZM16.9049 43.8381H15.3162L16.4825 40.1048H18.0713L16.9049 43.8381ZM12.912 43.8381H3.9666L3.43702 40.1048H14.0783L12.912 43.8381ZM47.088 43.8381L45.9216 40.1048H56.5628L56.0333 43.8381H47.088ZM54.0942 27.3463C54.0942 26.9393 54.4254 26.6081 54.8325 26.6081H56.9671C57.3742 26.6081 57.7054 26.9393 57.7054 27.3463C57.7054 27.7195 57.4261 28.0345 57.0557 28.0793L54.0943 28.437V27.3463H54.0942ZM45.2217 18.5023C44.5131 18.3795 43.5608 18.2706 42.3757 18.1769C42.4516 17.847 42.5139 17.512 42.5635 17.173C42.5645 17.1732 42.5658 17.1735 42.5668 17.1737C43.552 17.3993 44.4604 17.8629 45.2217 18.5023ZM30 4.92743C35.7361 4.92743 40.4029 9.59406 40.4029 15.3302C40.4029 21.0663 35.7362 25.733 30 25.733C24.2638 25.733 19.5971 21.0664 19.5971 15.3302C19.5971 9.59393 24.2639 4.92743 30 4.92743ZM17.4323 17.1736C17.4337 17.1734 17.4352 17.173 17.4366 17.1727C17.4861 17.5117 17.5484 17.8466 17.6243 18.1764C16.436 18.2709 15.4836 18.38 14.778 18.5024C15.5393 17.863 16.4475 17.3994 17.4323 17.1736ZM12.6958 21.5734C13.4053 21.2139 14.1727 20.9532 14.9832 20.7973C15.7112 20.6568 16.8729 20.5285 18.3693 20.4217C20.3354 24.8954 24.8084 28.0276 30 28.0276C35.1914 28.0276 39.6642 24.8956 41.6304 20.4223C43.1233 20.528 44.2856 20.6561 45.0182 20.7973C45.8276 20.9529 46.5951 21.214 47.3053 21.574L50.8512 29.3353H9.14967L12.6958 21.5734ZM2.29475 27.3463C2.29475 26.9393 2.62596 26.6081 3.03302 26.6081H5.16764C5.57471 26.6081 5.90592 26.9393 5.90592 27.3463V28.437L2.94454 28.0793C2.57407 28.0345 2.29475 27.7195 2.29475 27.3463ZM8.07636 31.6301H51.9236L55.5746 35.2809C56.2565 35.963 56.6734 36.8646 56.7678 37.81H3.23215C3.32662 36.8646 3.7435 35.9629 4.42542 35.2809L8.07636 31.6301ZM14.8928 53.9047C14.8928 54.5487 14.3689 55.0725 13.725 55.0725H7.98317C7.33924 55.0725 6.8154 54.5487 6.8154 53.9047V51.9747C7.52983 52.2152 8.2908 52.3456 9.07624 52.3456H14.8928V53.9047ZM53.1842 53.9047C53.1842 54.5487 52.6604 55.0725 52.0164 55.0725H46.276C45.6321 55.0725 45.1082 54.5487 45.1082 53.9047V52.3457H50.924C51.7093 52.3457 52.47 52.2154 53.1843 51.9751V53.9047H53.1842Z" fill="#FFB11B"/>
    <path d="M28.0749 22.0579C28.2794 22.4215 28.6631 22.6428 29.0747 22.6428C29.1119 22.6428 29.1492 22.641 29.1867 22.6373C29.6394 22.5931 30.0233 22.2854 30.165 21.8534L34.372 9.0417C34.5697 8.43971 34.2418 7.79132 33.6398 7.59372C33.0379 7.39599 32.3894 7.72388 32.1918 8.32587L28.7978 18.6622L26.633 14.8139C26.3224 14.2616 25.6227 14.0657 25.0706 14.3764C24.5182 14.687 24.3224 15.3865 24.6331 15.9389L28.0749 22.0579Z" fill="#FFB11B"/>
</svg>
