<svg width="80" height="80" viewBox="0 0 80 80" fill="none" xmlns="http://www.w3.org/2000/svg">
    <g clip-path="url(#clip0)">
        <path d="M56.7393 63.9424L46.5078 60.9916V58.3975C47.8699 57.3041 48.9471 55.8721 49.6146 54.2293H50.3734C53.216 54.2293 55.5275 51.9177 55.5275 49.0752V41.344C55.5275 32.8181 48.5916 25.8815 40.0651 25.8815C31.5392 25.8815 24.6027 32.8181 24.6027 41.344V49.0752C24.6027 51.9177 26.9149 54.2293 29.7568 54.2293H30.5162C31.1838 55.8721 32.2609 57.3041 33.6224 58.3975V60.9916L23.3915 63.9424C19.553 65.0504 16.8715 68.6133 16.8715 72.6092V80H63.2587V72.6092C63.2587 68.6133 60.5779 65.0504 56.7393 63.9424ZM47.539 63.9707L45.8006 70.0529L41.9941 67.0077L45.593 63.4089L47.539 63.9707ZM39.5731 74.8459H40.5577L41.8463 77.423H38.2846L39.5731 74.8459ZM40.8207 72.2688H39.3101L37.6994 70.6581L40.0651 68.7656L42.4314 70.6581L40.8207 72.2688ZM50.3734 51.6522H50.2847C50.3375 51.2294 50.3734 50.8003 50.3734 50.3637V46.4981C51.7947 46.4981 52.9505 47.6539 52.9505 49.0752C52.9505 50.4965 51.7947 51.6522 50.3734 51.6522ZM40.0651 28.4586C47.1703 28.4586 52.9505 34.2388 52.9505 41.344V44.6376C52.1892 44.1941 51.3171 43.921 50.3734 43.921V43.183C50.3734 40.7475 48.3921 38.7669 45.9579 38.7669C45.2778 38.7669 44.5945 38.928 43.9823 39.2337L41.1221 40.6638C40.2318 41.108 39.2359 41.344 38.2393 41.344H33.6224C31.9451 41.344 30.5275 42.4249 29.994 43.921H29.7568C28.8137 43.921 27.9417 44.1941 27.1797 44.6376V41.344C27.1797 34.2388 32.9605 28.4586 40.0651 28.4586ZM29.7568 51.6522C28.3362 51.6522 27.1797 50.4965 27.1797 49.0752C27.1797 47.6539 28.3362 46.4981 29.7568 46.4981V50.3637C29.7568 50.8003 29.7933 51.2294 29.8462 51.6522H29.7568ZM32.3339 50.3637V45.2096C32.3339 44.4986 32.9127 43.921 33.6224 43.921H38.2393C39.6335 43.921 41.0277 43.5913 42.2741 42.9691L45.1343 41.5396C45.3897 41.4113 45.6729 41.3452 45.9579 41.3452C46.9721 41.344 47.7963 42.1688 47.7963 43.183V50.3637C47.7963 54.6276 44.329 58.0949 40.0651 58.0949C35.8019 58.0949 32.3339 54.6276 32.3339 50.3637ZM40.0651 60.672C41.4323 60.672 42.7365 60.3989 43.9307 59.9132V61.427L40.0651 65.2926L36.1995 61.427V59.9132C37.3943 60.3989 38.6985 60.672 40.0651 60.672ZM34.5379 63.4089L38.1367 67.0077L34.3302 70.0529L32.5918 63.9707L34.5379 63.4089ZM19.4485 72.6092C19.4485 69.7565 21.3637 67.2116 24.1056 66.4188L30.1154 64.6848L32.9152 74.4854L35.6741 72.2776L37.2087 73.8115L35.4036 77.423H27.1797V73.5573H24.6027V77.423H19.4485V72.6092ZM60.6817 77.423H55.5275V73.5573H52.9505V77.423H44.7272L42.9221 73.8115L44.4567 72.2776L47.2156 74.4854L50.0154 64.6848L56.0252 66.4188C58.7671 67.2103 60.6817 69.7565 60.6817 72.6092V77.423Z" fill="#FFB11B"/>
        <path d="M34.0085 15.8903L40.0667 12.0957L46.1256 15.8903L44.14 9.13426L47.9684 5.93745L42.5368 4.52434L40.0667 0L37.5966 4.52434L32.1656 5.93745L35.9941 9.13426L34.0085 15.8903ZM39.3237 6.73776L40.0667 5.37561L40.8104 6.7365L42.4739 7.16936L41.1929 8.23895L41.7397 10.1007L40.0667 9.05435L38.3944 10.1019L38.9405 8.24021L37.6602 7.17062L39.3237 6.73776Z" fill="#FFB11B"/>
        <path d="M55.5288 7.73108L53.0587 12.2554L47.6277 13.6685L51.4562 16.8653L49.4705 23.6213L55.5288 19.8268L61.5876 23.6213L59.602 16.8653L63.4305 13.6685L57.9989 12.2554L55.5288 7.73108ZM57.2017 17.833L55.5288 16.7854L53.8564 17.833L54.4026 15.9713L53.1222 14.9017L54.7857 14.4688L55.5288 13.1067L56.2724 14.4676L57.936 14.9004L56.655 15.97L57.2017 17.833Z" fill="#FFB11B"/>
        <path d="M78.894 5.9362L73.463 4.52246L70.991 0L68.5209 4.52434L63.09 5.93745L66.9184 9.13426L64.9328 15.8903L70.991 12.0957L77.0499 15.8903L75.0643 9.13426L78.894 5.9362ZM72.664 10.1019L70.991 9.05435L69.3187 10.1019L69.8648 8.24021L68.5845 7.17062L70.248 6.73776L70.991 5.37561L71.7347 6.7365L73.3982 7.16936L72.1172 8.23895L72.664 10.1019Z" fill="#FFB11B"/>
        <path d="M18.5438 23.6213L24.602 19.8268L30.6609 23.6213L28.6753 16.8653L32.5037 13.6685L27.0721 12.2554L24.602 7.73108L22.1319 12.2554L16.7009 13.6685L20.5294 16.8653L18.5438 23.6213ZM23.859 14.4688L24.602 13.1067L25.3457 14.4676L27.0092 14.9004L25.7282 15.97L26.275 17.8317L24.602 16.7854L22.9297 17.833L23.4758 15.9713L22.1955 14.9017L23.859 14.4688Z" fill="#FFB11B"/>
        <path d="M9.13965 12.0957L15.1985 15.8903L13.2129 9.13426L17.0414 5.93745L11.6098 4.52434L9.13965 0L6.66954 4.52434L1.2373 5.9362L5.06579 9.133L3.08014 15.889L9.13965 12.0957ZM8.3966 6.73776L9.13965 5.37561L9.88333 6.7365L11.5468 7.16936L10.2659 8.23895L10.8126 10.1007L9.13965 9.05435L7.46732 10.1019L8.01344 8.24021L6.73308 7.17062L8.3966 6.73776Z" fill="#FFB11B"/>
        <path d="M72.2785 24.5928C72.2785 22.4618 70.5445 20.7272 68.4129 20.7272C66.2819 20.7272 64.5472 22.4618 64.5472 24.5928C64.5472 26.7245 66.2819 28.4584 68.4129 28.4584C68.5997 28.4584 68.7778 28.4289 68.9571 28.4031C71.1239 32.801 72.2785 37.6959 72.2785 42.6323C72.2785 47.8689 70.9943 53.0696 68.5626 57.6669L70.8421 58.8731C73.467 53.9033 74.8555 48.2892 74.8555 42.6323C74.8555 37.2813 73.5985 31.9736 71.2403 27.2102C71.8796 26.5206 72.2785 25.6058 72.2785 24.5928ZM67.1243 24.5928C67.1243 23.8831 67.7032 23.3043 68.4129 23.3043C69.1232 23.3043 69.7014 23.8831 69.7014 24.5928C69.7014 25.3032 69.1232 25.8814 68.4129 25.8814C67.7032 25.8814 67.1243 25.3032 67.1243 24.5928Z" fill="#FFB11B"/>
        <path d="M11.7176 56.8064C11.5307 56.8064 11.3533 56.836 11.174 56.8618C9.0065 52.4639 7.85197 47.569 7.85197 42.6325C7.85197 37.3947 9.13674 32.1953 11.5685 27.5979L9.29025 26.3931C6.66411 31.3603 5.2749 36.9757 5.2749 42.6325C5.2749 47.9836 6.53261 53.29 8.88947 58.0566C8.2515 58.7455 7.85197 59.6603 7.85197 60.672C7.85197 62.8036 9.58659 64.5376 11.7176 64.5376C13.8492 64.5376 15.5832 62.8036 15.5832 60.672C15.5832 58.541 13.8492 56.8064 11.7176 56.8064ZM11.7176 61.9605C11.0079 61.9605 10.429 61.3836 10.429 60.672C10.429 59.961 11.0079 59.3835 11.7176 59.3835C12.4279 59.3835 13.0061 59.961 13.0061 60.672C13.0061 61.3836 12.4279 61.9605 11.7176 61.9605Z" fill="#FFB11B"/>
    </g>
    <defs>
        <clipPath id="clip0">
            <rect width="80" height="80" fill="white"/>
        </clipPath>
    </defs>
</svg>
