<svg width="50" height="50" viewBox="0 0 50 50" fill="none" xmlns="http://www.w3.org/2000/svg">
    <g clip-path="url(#clip0)">
        <path d="M30.8799 11.4858H30.9383C30.9384 11.4858 30.8929 11.3716 30.8799 11.4858Z" fill="#FFB11B"/>
        <path d="M16.773 11.4858H16.8314C16.8184 11.3716 16.773 11.4858 16.773 11.4858Z" fill="#FFB11B"/>
        <path d="M44.9698 15.0828C44.642 14.5595 44.1301 14.1951 43.5283 14.0568L40.3587 13.3285L41.8222 12.9188C43.0348 12.5795 43.7653 11.2844 43.4254 10.0695C43.0859 8.85692 41.791 8.12654 40.576 8.46629L33.7521 10.3762C33.5745 10.0529 33.3219 9.77625 33.0176 9.57039C34.4024 6.99314 36.3976 2.6196 36.3976 0.738053C36.3976 0.279165 35.9639 -0.0759139 35.5138 0.0148089C32.8056 0.56188 30.2807 0.814322 27.7978 0.787271C25.2457 0.759244 22.0694 0.442251 20.0737 0.0164691C19.4567 -0.115172 18.9616 0.575259 19.287 1.11764C19.7733 1.92819 20.0713 2.78522 20.235 3.649C17.7302 3.72575 15.1327 3.42224 13.1666 2.43913C12.6371 2.17429 12.012 2.63767 12.1088 3.22038C12.7272 6.93006 13.9747 9.10506 15.2253 10.7483H15.1976C13.9229 10.7483 12.8858 11.7854 12.8858 13.0601C12.8858 14.2325 13.7632 15.2031 14.8957 15.3517C14.0702 16.7343 12.8913 18.0461 11.6526 19.4227C9.0185 22.35 6.03284 25.668 5.02835 31.0253C4.54769 33.5887 4.5637 35.9872 5.0761 38.1544C5.55443 40.1777 6.46546 42.009 7.78373 43.5975C9.53363 45.7061 11.9378 47.3421 14.9294 48.4605C17.6243 49.4678 20.7105 50.0003 23.8547 50.0003C26.9988 50.0003 30.0851 49.4678 32.7799 48.4605C35.7715 47.3421 38.1757 45.706 39.9256 43.5975C41.2439 42.009 42.1549 40.1778 42.6332 38.1544C43.1455 35.9872 43.1616 33.5886 42.681 31.0253C41.6765 25.6681 38.6909 22.3501 36.0568 19.4228C35.1626 18.4289 34.3118 17.4813 33.5985 16.5196L42.493 18.5632C43.4353 18.7797 44.4394 18.3675 44.9599 17.5532C45.4362 16.8077 45.4391 15.8316 44.9698 15.0828ZM27.7816 2.26276C30.0534 2.28757 32.3526 2.08893 34.7812 1.65612C34.3359 3.47673 32.9059 6.71482 31.5496 9.18153C30.6096 9.25233 29.8251 9.88729 29.5343 10.7482H27.4858C27.4395 10.6485 27.3883 10.5392 27.3311 10.4179C26.6977 9.07137 25.3796 6.26961 25.3796 3.88601C25.3796 3.4278 24.9468 3.07253 24.497 3.16257C23.6384 3.33435 22.6938 3.47331 21.7109 3.56042C21.6079 2.9448 21.448 2.32819 21.2156 1.72175C23.198 2.02858 25.6952 2.23981 27.7816 2.26276ZM32.5609 11.4859V14.634C32.5609 15.095 32.1858 15.4702 31.7247 15.4702C31.2636 15.4702 30.8885 15.0951 30.8885 14.634V11.4859C30.8885 11.0248 31.2636 10.6497 31.7247 10.6497C32.1858 10.6497 32.5609 11.0249 32.5609 11.4859ZM13.8288 4.3074C15.6733 4.93699 17.9423 5.21619 20.3928 5.13005L21.8551 5.03767C22.5449 4.97439 23.2447 4.88328 23.9497 4.76404C24.1798 7.04666 25.2225 9.39217 25.8561 10.7482H20.9433H19.3912H17.1084C17.0919 10.7223 17.0741 10.697 17.0541 10.6727C15.82 9.18807 14.5677 7.47078 13.8288 4.3074ZM34.9599 20.4096C37.4643 23.1926 40.3024 26.3469 41.2308 31.297C42.085 35.8529 41.2638 39.6742 38.79 42.6547C35.7398 46.33 30.1565 48.5244 23.8548 48.5244C17.553 48.5244 11.9696 46.3301 8.91937 42.6548C6.44564 39.6743 5.62454 35.853 6.47865 31.2971C7.40687 26.3469 10.2453 23.1925 12.7496 20.4096C14.2469 18.7454 15.6616 17.1714 16.5682 15.3719H18.3702C18.7778 15.3719 19.108 15.0415 19.108 14.6341C19.108 14.2266 18.7777 13.8963 18.3702 13.8963H15.1975C14.7364 13.8963 14.3613 13.5212 14.3613 13.06C14.3613 12.5989 14.7364 12.2238 15.1975 12.2238H29.4128V13.8962H21.887C21.4794 13.8962 21.1492 14.2266 21.1492 14.634C21.1492 15.0414 21.4795 15.3718 21.887 15.3718H29.5342C29.8429 16.2856 30.7078 16.9458 31.7246 16.9458C31.8421 16.9458 31.9573 16.9368 32.0702 16.9199C32.8936 18.111 33.8974 19.2289 34.9599 20.4096ZM34.0366 11.8289L40.9736 9.88739C41.4129 9.76424 41.8816 10.0289 42.0043 10.4673C42.1272 10.9066 41.863 11.3752 41.4244 11.4978L37.46 12.6074C37.4276 12.6165 37.3968 12.6282 37.3668 12.6412L34.0366 11.8761V11.8289ZM43.8256 16.4971C43.7223 16.9465 43.2734 17.2282 42.8233 17.1248L33.9902 15.0953C34.0205 14.9462 34.0365 14.7919 34.0365 14.6339V13.3899L43.1978 15.4948C43.6418 15.5969 43.9276 16.0526 43.8256 16.4971Z" fill="#FFB11B"/>
        <path d="M28.577 30.3249C29.6347 30.3249 30.4954 29.4644 30.4954 28.4066V27.2261C30.4954 24.4655 28.4364 22.1771 25.7733 21.8159V20.5365C25.7733 19.4788 24.9127 18.6182 23.8549 18.6182C22.7972 18.6182 21.9366 19.4787 21.9366 20.5365V21.9136C19.2025 22.5234 17.2145 24.954 17.2145 27.8163C17.2145 31.1524 19.9286 33.8664 23.2646 33.8664H24.4451C25.6655 33.8664 26.6585 34.8593 26.6585 36.0799C26.6585 37.3005 25.6656 38.2934 24.4451 38.2934H22.6743C21.7791 38.2934 21.051 37.5652 21.051 36.6702C21.051 35.6124 20.1905 34.7518 19.1327 34.7518C18.0749 34.7518 17.2143 35.6123 17.2143 36.6702C17.2143 39.4307 19.2733 41.7192 21.9364 42.0803V43.3597C21.9364 44.4174 22.7969 45.2781 23.8547 45.2781C24.9124 45.2781 25.7731 44.4175 25.7731 43.3597V41.9827C28.5072 41.3728 30.4952 38.9422 30.4952 36.0799C30.4952 32.7439 27.7811 30.0298 24.4451 30.0298H23.2646C22.0442 30.0298 21.0511 29.0369 21.0511 27.8163C21.0511 26.5957 22.0441 25.6028 23.2646 25.6028H25.0354C25.9305 25.6028 26.6586 26.3311 26.6586 27.2261V28.4066C26.6586 29.4643 27.5193 30.3249 28.577 30.3249ZM25.0355 24.1273H23.2647C21.2305 24.1273 19.5756 25.7821 19.5756 27.8163C19.5756 29.8505 21.2305 31.5054 23.2647 31.5054H24.4452C26.9676 31.5054 29.0197 33.5575 29.0197 36.0799C29.0197 38.4138 27.2717 40.3678 24.954 40.6253C24.5804 40.6668 24.2977 40.9827 24.2977 41.3586V43.3597C24.2977 43.6038 24.0991 43.8024 23.855 43.8024C23.611 43.8024 23.4123 43.6038 23.4123 43.3597V41.3922C23.4123 40.9847 23.0821 40.6544 22.6746 40.6544C20.4776 40.6544 18.6904 38.8671 18.6904 36.6702C18.6904 36.4262 18.889 36.2276 19.133 36.2276C19.3771 36.2276 19.5757 36.4262 19.5757 36.6702C19.5757 38.3789 20.9659 39.7691 22.6746 39.7691H24.4454C26.4795 39.7691 28.1344 38.1142 28.1344 36.08C28.1344 34.0458 26.4795 32.3909 24.4454 32.3909H23.2649C20.7424 32.3909 18.6904 30.3388 18.6904 27.8164C18.6904 25.4825 20.4383 23.5285 22.756 23.271C23.1296 23.2295 23.4123 22.9137 23.4123 22.5377V20.5366C23.4123 20.2926 23.611 20.0939 23.855 20.0939C24.0991 20.0939 24.2977 20.2926 24.2977 20.5366V22.5041C24.2977 22.9116 24.628 23.2419 25.0355 23.2419C27.2325 23.2419 29.0197 25.0292 29.0197 27.2261V28.4066C29.0197 28.6506 28.821 28.8492 28.577 28.8492C28.333 28.8492 28.1343 28.6506 28.1343 28.4066V27.2261C28.1343 25.5174 26.7442 24.1273 25.0355 24.1273Z" fill="#FFB11B"/>
    </g>
    <defs>
        <clipPath id="clip0">
            <rect width="50" height="50" fill="white"/>
        </clipPath>
    </defs>
</svg>
