<svg width="60" height="60" viewBox="0 0 60 60" fill="none" xmlns="http://www.w3.org/2000/svg">
    <g clip-path="url(#clip0)">
        <path d="M59.5996 39.7942C58.5517 37.3738 56.6489 35.547 54.0969 34.5116C52.0317 33.6737 49.674 33.4216 47.3855 33.7808L46.4712 31.8267V29.0977C46.962 29.2782 47.4838 29.3736 48.0161 29.3736H51.1225C52.2222 29.3736 53.1168 28.4796 53.1168 27.3804V22.3712C53.1168 21.2721 52.2222 20.3779 51.1225 20.3779H48.0161C47.4838 20.3779 46.962 20.4733 46.4712 20.6537V17.6179C46.4712 17.1311 46.3628 16.685 46.1491 16.291C45.7826 15.4867 45.0623 14.913 44.2198 14.7226L42.8686 11.6462C43.3234 11.294 43.6178 10.7451 43.6178 10.1276V8.61759C43.6178 7.66954 42.9073 6.90243 41.8521 6.70907L37.4206 5.88419C37.4198 5.88407 37.4189 5.88396 37.4181 5.88372C36.9323 5.79466 36.4465 5.92732 36.0508 6.25732C35.6019 6.63138 35.3341 7.20653 35.3341 7.79599V10.1277C35.3341 11.1882 36.1974 12.0509 37.2585 12.0509H41.1116L42.2527 14.649L37.7817 14.6336C37.7768 14.6335 37.772 14.6335 37.7671 14.6335C36.1102 14.6335 35.2048 15.8543 35.1668 17.0638C35.1274 18.3192 35.9836 19.6426 37.6963 19.7428L41.2439 19.9502V22.7959C40.5402 22.2968 39.6399 21.8887 38.5647 21.5942C34.1999 20.3988 28.0824 21.2342 25.7948 24.2728H18.87C18.3809 24.2728 17.9843 24.6692 17.9843 25.1584C17.9843 25.6475 18.3809 26.044 18.87 26.044H25.3757V30.6488H15.211H11.0092H3.97409C2.79823 30.6488 2.09628 30.0759 2.09628 29.1164V25.4077C2.09628 24.9562 2.20843 24.6217 2.42968 24.4133C2.68878 24.1693 3.14229 24.0487 3.67444 24.0799C3.69343 24.0811 3.71311 24.082 3.7314 24.0815L5.32175 24.0749C5.6637 24.0765 5.96921 24.3522 6.4396 24.8019C6.99308 25.3312 7.68179 25.9898 8.72007 26.0428C8.73507 26.0436 8.75019 26.044 8.7653 26.044H15.0114C15.5005 26.044 15.8971 25.6475 15.8971 25.1584C15.8971 24.6692 15.5005 24.2728 15.0114 24.2728H8.79226C8.44468 24.2463 8.13225 23.97 7.66362 23.5218C7.09843 22.9814 6.39495 22.3086 5.3221 22.3037L3.75085 22.3102C2.73097 22.2549 1.83143 22.5438 1.21526 23.1238C0.808974 23.5063 0.324755 24.213 0.324755 25.4077V29.1164C0.324755 31.0615 1.82534 32.42 3.97386 32.42H9.91679L9.66436 33.615C5.63323 33.6859 1.27714 35.6383 0.242021 39.4698C-0.143292 40.9004 -0.068995 41.9188 0.46913 42.5832C0.605536 42.7517 0.804286 42.933 1.08354 43.0678C0.96495 43.6634 0.90413 44.2717 0.90413 44.8856C0.90413 49.9902 5.06077 54.1431 10.17 54.1431C14.5255 54.1431 18.2834 51.0777 19.2134 46.8962L23.219 46.8921C23.7081 46.8916 24.1042 46.4947 24.1037 46.0056C24.1033 45.5168 23.7068 45.1209 23.218 45.1209C23.2178 45.1209 23.2175 45.1209 23.2171 45.1209L12.9586 45.1316C13.0586 44.9024 13.1392 44.6526 13.1914 44.377L13.4399 43.2867H26.7278C26.729 43.2867 26.7301 43.2869 26.7313 43.2869C26.7325 43.2869 26.7337 43.2867 26.7348 43.2867H28.5183C29.8786 43.2867 30.5283 42.9637 31.2982 41.9049L36.1854 35.1996C36.19 35.1931 36.195 35.1869 36.1995 35.1802L38.2112 32.4201H41.0744L32.4894 43.639C32.4788 43.6529 32.4686 43.6671 32.4587 43.6815C31.4869 45.1209 30.5178 45.1209 30.153 45.1209H26.697C26.2078 45.1209 25.8113 45.5174 25.8113 46.0065C25.8113 46.4956 26.2078 46.8921 26.697 46.8921H30.153C31.6549 46.8921 32.9194 46.1531 33.9115 44.6952L41.9191 34.2309L42.5903 35.629C41.0133 36.7091 39.8679 38.1531 39.2553 39.8445C38.7756 41.1703 38.7887 42.2079 39.2943 42.9285C39.4677 43.1756 39.7504 43.4505 40.1994 43.6316C40.1437 44.0435 40.1146 44.4627 40.1146 44.8856C40.1146 49.9902 44.2712 54.1431 49.3805 54.1431C54.4898 54.1431 58.6464 49.9902 58.6464 44.8856C58.6464 44.4815 58.6187 44.0763 58.5657 43.6734C59.1174 43.4832 59.4473 43.1535 59.6397 42.8599C60.3413 41.7915 59.845 40.3592 59.5996 39.7942ZM46.4712 22.6327C46.9248 22.3189 47.4617 22.1492 48.0161 22.1492H51.1225C51.2434 22.1492 51.3455 22.2509 51.3455 22.3712V27.3804C51.3455 27.5006 51.2434 27.6023 51.1225 27.6023H48.0161C47.4618 27.6023 46.9248 27.4325 46.4712 27.1187V22.6327ZM41.8465 10.1278C41.8465 10.2102 41.7749 10.2799 41.6901 10.2799H41.6856C41.6814 10.2799 41.6772 10.2798 41.673 10.2799H37.2586C37.1757 10.2799 37.1055 10.2102 37.1055 10.1278V7.79611C37.1055 7.73657 37.1372 7.67329 37.165 7.63849L41.5305 8.45107C41.7085 8.48364 41.8465 8.56743 41.8465 8.61771V10.1278ZM2.16507 41.499C2.15065 41.4991 2.13624 41.4994 2.12183 41.5002C1.91253 41.5114 1.8469 41.4698 1.8469 41.4697C1.79534 41.4187 1.66245 41.0079 1.95249 39.9313C2.63136 37.4183 5.69171 35.5749 9.28819 35.3979L7.99948 41.4989H2.17362C2.17069 41.4989 2.16788 41.499 2.16507 41.499ZM9.81601 46.8438C9.89464 46.8579 9.97421 46.8682 10.0542 46.8754C10.1264 46.8944 10.2019 46.9056 10.2801 46.9056H10.281L12.7915 46.903C12.1773 47.6965 11.217 48.1944 10.1701 48.1944C8.34343 48.1944 6.85737 46.7101 6.85737 44.8857C6.85737 44.313 7.00468 43.7626 7.28218 43.2702H7.62542L7.61229 43.3323C7.61007 43.3432 7.60796 43.354 7.60608 43.3647C7.26718 45.3296 8.4612 46.6023 9.81601 46.8438ZM14.8355 46.9009L17.389 46.8983C16.4996 50.0804 13.558 52.372 10.1701 52.372C6.03765 52.372 2.67554 49.0136 2.67554 44.8857C2.67554 44.3387 2.73507 43.7977 2.85097 43.2702H5.34882C5.1755 43.7858 5.08608 44.3292 5.08608 44.8857C5.08608 47.6868 7.36679 49.9656 10.1701 49.9656C12.2111 49.9656 14.0418 48.7344 14.8355 46.9009ZM13.4628 35.2188L11.8724 42.195C11.8714 42.2 11.87 42.2051 11.8689 42.2102L11.4608 44.0002C11.4582 44.0123 11.4556 44.0245 11.4533 44.0368C11.2705 45.0302 10.5332 45.1721 10.1269 45.1001C9.89511 45.0587 9.15683 44.8345 9.34913 43.681L9.58046 42.5857C9.58351 42.5723 9.58643 42.559 9.58901 42.5454L11.7275 32.4202H14.1008L13.4723 35.1778C13.4687 35.1915 13.4653 35.2051 13.4628 35.2188ZM17.7335 41.4989C17.7294 41.4989 17.7255 41.4989 17.7214 41.4989H13.8478L14.9435 36.6926C16.2893 37.4976 17.2958 38.6401 17.8834 40.0425C17.8853 40.0468 17.8871 40.0511 17.8889 40.0555C18.0749 40.4799 18.2349 41.113 18.2721 41.5063L17.7335 41.4989ZM15.3532 34.8951L15.9175 32.4202H24.2343L18.91 38.1702C18.0696 36.7937 16.8623 35.6819 15.3532 34.8951ZM19.7207 39.9017L26.6483 32.4201H36.0198L35.0126 33.8021H29.6174C29.1283 33.8021 28.7317 34.1986 28.7317 34.6877C28.7317 35.1768 29.1283 35.5733 29.6174 35.5733H33.7217L31.4439 38.6984C30.8131 38.0417 29.9292 37.6472 28.9683 37.6472C28.0287 37.6472 27.1501 38.0156 26.4964 38.6827C25.9105 39.2771 25.5593 40.0618 25.5074 40.8918C25.4942 41.1016 25.502 41.3099 25.5259 41.5154H20.044C20.0239 40.9313 19.8613 40.3251 19.7207 39.9017ZM28.5188 41.5155H27.3205C27.2801 41.3497 27.2642 41.1772 27.2752 41.0028C27.3004 40.5988 27.4718 40.2164 27.7596 39.9243C28.0793 39.5982 28.5085 39.4184 28.9682 39.4184C29.5573 39.4184 30.0715 39.706 30.3669 40.1761L29.8667 40.8624C29.4455 41.4417 29.3432 41.5155 28.5188 41.5155ZM41.2439 30.649H27.1471V25.4177C28.8413 22.9841 34.332 22.2715 38.0967 23.3027C39.043 23.5619 41.244 24.331 41.244 25.8703V30.649H41.2439ZM42.1813 18.2308L37.7998 17.9747C37.1446 17.9363 36.9257 17.49 36.9374 17.1195C36.9442 16.9043 37.0385 16.4049 37.7682 16.4049H37.7752L43.6076 16.425C44.0141 16.4268 44.3819 16.6685 44.5443 17.0409C44.5566 17.069 44.5703 17.0967 44.5854 17.1233C44.6616 17.2577 44.7001 17.4242 44.7001 17.6182V22.2082V27.5434V32.0237C44.7001 32.1534 44.7286 32.2816 44.7836 32.3989L46.0523 35.1104C46.0633 35.1372 46.0755 35.1633 46.0888 35.1886L50.1607 43.8908C50.3956 44.3922 50.3087 44.7313 49.8953 44.9274C49.608 45.0636 49.1038 45.1009 48.9345 44.7485L43.0153 32.4206V31.5345V25.8703V19.115C43.0152 18.6459 42.6495 18.2581 42.1813 18.2308ZM52.0008 43.8321H52.5191C52.6321 44.1689 52.6906 44.5213 52.6906 44.8856C52.6906 46.71 51.2059 48.1943 49.3811 48.1943C47.5545 48.1943 46.0683 46.71 46.0683 44.8856C46.0683 44.5231 46.1276 44.1706 46.2422 43.8321H46.5294L47.3377 45.5155C47.7638 46.4021 48.6048 46.7972 49.4547 46.7972C49.8681 46.7972 50.2835 46.7036 50.6543 46.5279C51.5595 46.0985 52.2739 45.1095 52.0008 43.8321ZM40.7449 41.9111C40.6585 41.7879 40.5982 41.3408 40.9214 40.4476C41.3767 39.1903 42.2154 38.0992 43.369 37.2498L45.679 42.0609H41.3405C41.0379 42.0609 40.8098 42.0035 40.7449 41.9111ZM49.3811 52.372C45.2486 52.372 41.8866 49.0136 41.8866 44.8857C41.8866 44.5295 41.9117 44.1772 41.9602 43.8322H44.4089C44.336 44.176 44.297 44.5275 44.297 44.8857C44.297 47.6868 46.5777 49.9656 49.3811 49.9656C52.1827 49.9656 54.4619 47.6867 54.4619 44.8857C54.4619 44.5267 54.4234 44.1752 54.3512 43.8322H56.7981C56.8476 44.1825 56.8757 44.5346 56.8757 44.8857C56.8757 49.0136 53.5136 52.372 49.3811 52.372ZM58.1592 41.8885C58.0885 41.9965 57.855 42.0609 57.5349 42.0609H51.2598L48.1718 35.4613C51.8626 35.0573 56.1993 36.3984 57.9744 40.4989C58.2582 41.152 58.2814 41.7022 58.1592 41.8885Z" fill="#FFB11B"/>
    </g>
    <defs>
        <clipPath id="clip0">
            <rect width="60" height="60" fill="white"/>
        </clipPath>
    </defs>
</svg>
