<svg width="60" height="60" viewBox="0 0 60 60" fill="none" xmlns="http://www.w3.org/2000/svg">
    <path d="M55.9613 28.4611C55.9613 26.9015 54.6926 25.6328 53.133 25.6328H51.3019C50.2647 25.6328 49.3585 26.1958 48.8663 27.0306L46.5054 21.8623C45.526 19.7171 43.5691 18.1218 41.2704 17.5948C37.4782 16.7259 22.5206 16.7259 18.7285 17.5948C16.4299 18.1218 14.473 19.7171 13.4938 21.8619L11.1326 27.0302C10.6403 26.1955 9.7343 25.6328 8.69708 25.6328H6.866C5.3064 25.6328 4.03766 26.9015 4.03766 28.4611C4.03766 29.8905 5.10784 31.0976 6.52685 31.269L8.69344 31.5307L6.50856 33.7156C5.23631 34.9878 4.6277 36.8107 4.88035 38.592L5.74026 44.655C5.96412 46.2334 6.7682 47.6149 7.9156 48.5961V51.2441C7.9156 53.0068 9.34968 54.4409 11.1124 54.4409H16.0381C17.8008 54.4409 19.2349 53.0068 19.2349 51.2441V50.1331H40.7649V51.2441C40.7649 53.0068 42.199 54.4409 43.9617 54.4409H48.8862C50.6489 54.4409 52.083 53.0068 52.083 51.2441V48.5965C53.2305 47.6153 54.0349 46.2337 54.2589 44.6551L55.1188 38.5921C55.3714 36.8108 54.7628 34.988 53.4906 33.7157L51.3057 31.5308L53.4721 31.2692C54.8912 31.0976 55.9613 29.8905 55.9613 28.4611ZM19.2695 19.9551C22.679 19.1738 37.3199 19.1738 40.7293 19.9551C41.2339 20.0708 41.7139 20.2628 42.1558 20.5177C36.8265 19.8818 23.1695 19.8819 17.8429 20.5177C18.285 20.2628 18.7648 20.0707 19.2695 19.9551ZM15.3268 23.677C15.8973 23.3961 16.512 23.1901 17.1608 23.0656C21.3599 22.2554 38.6386 22.2554 42.8398 23.0657C43.4875 23.1901 44.1018 23.396 44.6719 23.6766L47.5339 29.941H12.4654L15.3268 23.677ZM6.45918 28.4611C6.45918 28.2369 6.64161 28.0543 6.866 28.0543H8.69708C8.92134 28.0543 9.10389 28.2367 9.10389 28.4611V29.1412L6.81717 28.865C6.61309 28.8402 6.45918 28.6667 6.45918 28.4611ZM47.9489 47.7115H12.0501C10.2626 47.7115 8.70461 46.4916 8.23995 44.8035H51.7592C51.2943 46.4916 49.7363 47.7115 47.9489 47.7115ZM44.8247 42.382L43.9658 39.6325H52.5255L52.1355 42.382H44.8247ZM41.429 39.6323L42.2879 42.3818H41.3991L40.5401 39.6323H41.429ZM38.0032 39.6323L38.8621 42.3818H21.1363L21.9953 39.6323H38.0032ZM18.5994 42.382H17.7109L18.5699 39.6325H19.4583L18.5994 42.382ZM15.1741 42.382H7.86353L7.47353 39.6323H16.0331L15.1741 42.382ZM16.8134 51.2439C16.8134 51.6715 16.4656 52.0192 16.0381 52.0192H11.1124C10.6849 52.0192 10.3371 51.6715 10.3371 51.2439V49.8958C10.8847 50.0504 11.4596 50.133 12.0501 50.133H16.8134V51.2439ZM49.6613 51.2439C49.6613 51.6715 49.3136 52.0192 48.8861 52.0192H43.9616C43.5341 52.0192 43.1863 51.6715 43.1863 51.2439V50.133H47.9488C48.5391 50.133 49.1139 50.0504 49.6612 49.8958V51.2439H49.6613ZM52.7017 37.2108H7.2973C7.41501 36.5431 7.73304 35.9155 8.22071 35.4279L11.2864 32.3624H48.7129L51.7784 35.4279C52.2658 35.9155 52.5839 36.5431 52.7017 37.2108ZM53.1818 28.865L50.8951 29.1412V28.4611C50.8951 28.2369 51.0775 28.0543 51.3019 28.0543H53.133C53.3573 28.0543 53.5398 28.2367 53.5398 28.4611C53.5398 28.6667 53.3859 28.8402 53.1818 28.865Z" fill="#FFB11B"/>
    <path d="M59.1091 9.68078L30.3199 1.79186C30.1104 1.73442 29.8894 1.73442 29.68 1.79186L0.890717 9.68078C0.364708 9.82487 0 10.303 0 10.8485V57.0403C0 57.7089 0.542018 58.251 1.21076 58.251H58.7892C59.458 58.251 60 57.7089 60 57.0403V10.8485C60 10.303 59.6353 9.82487 59.1091 9.68078ZM30 4.215L57.5785 11.772V14.0324L30.3199 6.56294C30.1104 6.50549 29.8894 6.50549 29.68 6.56294L2.42152 14.0324V11.772L30 4.215ZM2.42152 55.8295V16.5431L30 8.98608L57.5785 16.5431V55.8295H2.42152Z" fill="#FFB11B"/>
</svg>
