<svg width="60" height="60" viewBox="0 0 60 60" fill="none" xmlns="http://www.w3.org/2000/svg">
    <path d="M59.987 55.766L56.4717 36.3835C56.385 35.9049 55.9267 35.5872 55.4481 35.6741C54.9695 35.7608 54.652 36.2192 54.7388 36.6977L56.225 44.8929L44.7663 31.5828L52.4732 29.8628L53.6144 30.498L54.1098 33.2304C54.1965 33.709 54.6549 34.0264 55.1334 33.9398C55.612 33.8531 55.9295 33.3947 55.8429 32.9162L55.2729 29.7739C55.2259 29.5145 55.0651 29.2898 54.8349 29.1616L53.0369 28.1607C53.0369 28.1607 53.0369 28.1607 53.0367 28.1607L47.3546 24.9977H47.3545L42.9703 22.5572C42.9701 22.5572 42.97 22.5571 42.97 22.5571C42.9697 22.557 42.9694 22.5567 42.9691 22.5565C42.9352 22.5378 42.9005 22.5216 42.865 22.5076C42.8539 22.5033 42.8425 22.5004 42.8312 22.4965C42.8064 22.4878 42.7816 22.4795 42.7564 22.4731C42.7421 22.4694 42.7277 22.4673 42.7131 22.4645C42.6905 22.4601 42.6678 22.4556 42.6449 22.4529C42.6295 22.451 42.6141 22.4505 42.5985 22.4495C42.5764 22.4481 42.5542 22.4469 42.5321 22.4472C42.5163 22.4473 42.5006 22.4485 42.4847 22.4494C42.4629 22.4508 42.4412 22.4528 42.4194 22.4558C42.4035 22.4581 42.3877 22.4609 42.372 22.464C42.3507 22.4683 42.3296 22.4732 42.3085 22.4789C42.2927 22.4833 42.277 22.4879 42.2614 22.4931C42.241 22.5 42.2208 22.5079 42.2008 22.5163C42.1853 22.5229 42.17 22.5293 42.1546 22.5368C42.148 22.5401 42.141 22.5423 42.1345 22.5457L40.1226 23.5944C41.6193 20.8036 42.3754 18.1007 42.3754 15.5149C42.3754 8.72211 36.8491 3.1958 30.0564 3.1958C23.2636 3.1958 17.738 8.72211 17.738 15.5149C17.738 18.1258 18.5082 20.8561 20.0342 23.6758L17.8663 22.5457C17.8596 22.5422 17.8525 22.5399 17.8457 22.5366C17.8309 22.5293 17.8157 22.523 17.8007 22.5167C17.7804 22.5081 17.7599 22.5001 17.7392 22.4931C17.7238 22.4879 17.7082 22.4834 17.6927 22.479C17.6716 22.4733 17.6504 22.4683 17.629 22.464C17.6132 22.4609 17.5973 22.4581 17.5813 22.4558C17.5599 22.4528 17.5383 22.4509 17.5168 22.4495C17.5006 22.4485 17.4844 22.4474 17.4684 22.4472C17.4468 22.4469 17.4254 22.4481 17.4038 22.4494C17.3876 22.4505 17.3714 22.451 17.3553 22.453C17.3334 22.4556 17.3117 22.4599 17.29 22.4642C17.2747 22.4672 17.2592 22.4694 17.2439 22.4733C17.2199 22.4794 17.1964 22.4875 17.1728 22.4956C17.1605 22.4998 17.148 22.5031 17.1357 22.5079C17.1003 22.5218 17.0657 22.538 17.032 22.5566C17.0316 22.5567 17.0314 22.557 17.031 22.5572C17.0309 22.5572 17.0309 22.5573 17.0308 22.5573L5.16642 29.1616C4.93603 29.2898 4.77525 29.5145 4.72837 29.7739L1.38655 48.1998C1.29983 48.6783 1.61741 49.1368 2.096 49.2235C2.57471 49.3105 3.03291 48.9926 3.11963 48.514L4.12216 42.9862L15.5199 36.9611L14.6033 48.7963L2.04584 54.4348L2.48775 51.9973C2.57447 51.5188 2.25701 51.0605 1.77842 50.9737C1.30018 50.8872 0.841628 51.2045 0.754793 51.6831L0.0142879 55.7661C-0.0440713 56.0877 0.0806157 56.4152 0.337958 56.6167C0.495809 56.7402 0.68741 56.8038 0.880769 56.8038C1.00299 56.8038 1.12592 56.7784 1.24135 56.7266L15.4407 50.351L29.634 56.7239C29.6344 56.724 29.6347 56.7243 29.6351 56.7244L29.6399 56.7265C29.6478 56.7301 29.6562 56.7326 29.6644 56.736C29.6774 56.7414 29.6905 56.7464 29.7039 56.7512C29.7166 56.7558 29.7295 56.7604 29.7426 56.7643C29.7511 56.7669 29.7595 56.7691 29.768 56.7715C29.779 56.7745 29.7899 56.7775 29.8011 56.78C29.8194 56.7843 29.8379 56.7875 29.8563 56.7906C29.8651 56.792 29.8738 56.7941 29.8827 56.7953C29.8887 56.7961 29.8946 56.7969 29.9006 56.7976C29.93 56.801 29.9598 56.8028 29.9893 56.8031C29.9931 56.8031 29.9968 56.8038 30.0006 56.8038C30.0025 56.8038 30.0043 56.8035 30.0062 56.8035C30.0418 56.8032 30.0772 56.8003 30.1127 56.7957C30.1171 56.7952 30.1215 56.7954 30.126 56.7947C30.1326 56.7938 30.1392 56.7915 30.146 56.7905C30.1735 56.7859 30.2011 56.7799 30.2283 56.7725C30.2358 56.7705 30.2434 56.7694 30.2509 56.7673C30.2517 56.767 30.2524 56.767 30.2532 56.7668C30.2557 56.7661 30.2579 56.7648 30.2604 56.764C30.2946 56.7534 30.3282 56.7414 30.3614 56.7265L44.5602 50.3509L58.7595 56.7264C58.7732 56.7325 58.7872 56.737 58.8013 56.7424C58.8151 56.7478 58.8287 56.7538 58.8429 56.7585C58.8613 56.7646 58.8802 56.7691 58.8989 56.7739C58.9105 56.777 58.9218 56.7807 58.9336 56.7832C58.9562 56.7881 58.9791 56.7913 59.0019 56.7945C59.0101 56.7955 59.0181 56.7974 59.0263 56.7983C59.0576 56.8017 59.0889 56.8035 59.1202 56.8035H59.1203C59.1204 56.8035 59.1205 56.8035 59.1205 56.8035C59.1633 56.8035 59.2061 56.7991 59.2487 56.7929C59.2585 56.7915 59.2684 56.79 59.2782 56.7881C59.3203 56.7805 59.362 56.7707 59.4033 56.7566C59.4059 56.7557 59.4084 56.7544 59.411 56.7536C59.4382 56.7441 59.4653 56.7336 59.4918 56.7211C59.4995 56.7175 59.5062 56.7123 59.5138 56.7084C59.5359 56.6973 59.5573 56.6845 59.5786 56.6713C59.5999 56.6583 59.6211 56.6452 59.6412 56.6303C59.6481 56.6251 59.6558 56.6215 59.6627 56.6162C59.6782 56.6041 59.6917 56.5902 59.7062 56.5771C59.7178 56.5666 59.7299 56.5568 59.741 56.5459C59.7677 56.5195 59.7921 56.4914 59.8147 56.4622C59.8189 56.4567 59.824 56.4519 59.8282 56.4463C59.8544 56.4107 59.8776 56.3733 59.8982 56.3344C59.9039 56.3235 59.9082 56.3119 59.9136 56.3006C59.9272 56.272 59.9398 56.2432 59.9503 56.2133C59.9556 56.1983 59.9598 56.1831 59.9643 56.1676C59.9722 56.1402 59.9789 56.1124 59.9842 56.0842C59.9872 56.068 59.99 56.0517 59.9921 56.0353C59.996 56.0054 59.9978 55.9751 59.9986 55.9447C59.9989 55.9303 60.0001 55.916 59.9998 55.9014C59.9991 55.8566 59.9953 55.8113 59.987 55.766ZM44.5074 25.4285L43.6046 25.6397L43.5468 24.8938L44.5074 25.4285ZM42.5862 35.2987L38.9084 32.4271C38.6539 32.2284 38.3112 32.1848 38.015 32.3136L30.8849 35.417V34.4519C31.4176 34.018 32.628 32.9949 34.0788 31.5267L42.0237 28.0364L42.5862 35.2987ZM41.7671 24.7238L41.8796 26.1759L36.9164 28.3564C37.4091 27.7455 37.8686 27.1379 38.2951 26.5336L41.7671 24.7238ZM18.2342 24.7238L21.8846 26.6266C22.4251 27.3868 23.0173 28.1525 23.6626 28.9233C24.2269 29.5971 24.7893 30.2232 25.3303 30.7964L17.8468 29.7255L18.2342 24.7238ZM15.6807 34.8839L4.52165 40.7826L5.06517 37.7857L5.07911 37.7084L15.9037 32.0037L15.6807 34.8839ZM16.0646 29.928L5.47849 35.5072L6.38692 30.4982L16.4545 24.8939L16.2015 28.1612L16.0646 29.928ZM16.3667 48.8361L17.2005 38.0702L27.6032 53.8813L16.3667 48.8361ZM29.1199 45.4418L23.695 36.8921L29.1199 37.5417V45.4418ZM29.1199 35.7677L22.0619 34.9227C21.7245 34.8829 21.3934 35.0399 21.2121 35.3277C21.0308 35.6154 21.0314 35.9817 21.2137 36.269L29.1199 48.7293V52.9825L17.4224 35.2034L17.7105 31.4853L27.4268 32.8756C28.1596 33.5557 28.7536 34.0606 29.1198 34.3622V35.7677H29.1199ZM30.0571 32.8478C27.8332 30.9722 19.4993 23.4149 19.4993 15.515C19.4992 9.69335 24.2354 4.95712 30.0571 4.95712C35.8787 4.95712 40.6149 9.69335 40.6149 15.515C40.6149 23.4149 32.2809 30.9723 30.0571 32.8478ZM30.8812 54.5624V50.6534L33.514 53.3802L30.8812 54.5624ZM35.2218 52.6133L30.8812 48.1176V37.3392L38.2373 34.1376L42.7702 37.677L43.6345 48.8361L35.2218 52.6133ZM43.742 27.4161L46.7954 26.7021L48.9607 27.9075L50.1589 28.5745L43.9392 29.9626L43.742 27.4161ZM45.398 48.7963L44.7105 39.9194L56.0237 53.5675L45.398 48.7963ZM44.4748 36.8752L44.2355 33.785L44.2254 33.6541L56.8453 48.313L57.6545 52.7747L44.4748 36.8752Z" fill="#FFB11B"/>
    <path d="M30.056 10.0723C29.5697 10.0723 29.1754 10.4665 29.1754 10.9529C29.1754 11.4394 29.5697 11.8336 30.056 11.8336C32.0861 11.8336 33.7376 13.4851 33.7376 15.5151C33.7376 17.545 32.0861 19.1967 30.056 19.1967C28.026 19.1967 26.3745 17.5452 26.3745 15.5151C26.3745 14.544 26.7493 13.6277 27.4299 12.9349C27.7708 12.588 27.7659 12.0305 27.4189 11.6897C27.0719 11.3488 26.5143 11.3536 26.1735 11.7007C25.1673 12.7248 24.6133 14.0795 24.6133 15.5151C24.6133 18.5163 27.0549 20.958 30.0562 20.958C33.0574 20.958 35.499 18.5163 35.499 15.5151C35.4989 12.5139 33.0573 10.0723 30.056 10.0723Z" fill="#FFB11B"/>
</svg>
