<svg width="40" height="40" viewBox="0 0 40 40" fill="none" xmlns="http://www.w3.org/2000/svg">
    <path d="M20 40C31.0457 40 40 31.0457 40 20C40 8.9543 31.0457 0 20 0C8.9543 0 0 8.9543 0 20C0 31.0457 8.9543 40 20 40Z" fill="#F15249"/>
    <path d="M11.6089 29.0221L22.3975 39.8107C31.4827 38.7382 38.6751 31.6088 39.8108 22.5237L28.959 11.6719L11.6089 29.0221Z" fill="#AD0E0E"/>
    <path d="M29.4634 24.4164C30.3467 25.2997 30.3467 26.8139 29.4634 27.6972L27.6969 29.4637C26.8136 30.347 25.2994 30.347 24.4161 29.4637L10.536 15.5836C9.65271 14.7003 9.65271 13.1861 10.536 12.3028L12.3656 10.4732C13.2489 9.58991 14.7631 9.58991 15.6464 10.4732L29.4634 24.4164Z" fill="white"/>
    <path d="M22.1451 17.0347L17.0347 22.1451L24.4164 29.4637C25.2997 30.347 26.8139 30.347 27.6971 29.4637L29.5268 27.6341C30.4101 26.7508 30.4101 25.2366 29.5268 24.3533L22.1451 17.0347Z" fill="#D6D6D6"/>
    <path d="M24.4161 10.5363C25.2994 9.65299 26.8136 9.65299 27.6969 10.5363L29.5265 12.3659C30.4098 13.2492 30.4098 14.7634 29.5265 15.6467L15.5833 29.4637C14.7 30.347 13.1858 30.347 12.3026 29.4637L10.536 27.6972C9.65271 26.8139 9.65271 25.2997 10.536 24.4164L24.4161 10.5363Z" fill="white"/>
</svg>
