<svg width="80" height="80" viewBox="0 0 80 80" fill="none" xmlns="http://www.w3.org/2000/svg">
    <g clip-path="url(#clip0)">
        <path d="M78.8258 21.2916C76.7108 21.2916 74.9902 19.5711 74.9902 17.456C74.9902 16.8074 74.4646 16.2817 73.816 16.2817C73.1674 16.2817 72.6417 16.8074 72.6417 17.456C72.6417 19.571 70.9213 21.2916 68.8061 21.2916C68.1575 21.2916 67.6319 21.8172 67.6319 22.4658C67.6319 23.1144 68.1575 23.64 68.8061 23.64C70.9211 23.64 72.6417 25.3606 72.6417 27.4756C72.6417 28.1242 73.1674 28.6499 73.816 28.6499C74.4646 28.6499 74.9902 28.1242 74.9902 27.4756C74.9902 25.3606 76.7106 23.64 78.8258 23.64C79.4744 23.64 80 23.1144 80 22.4658C80 21.8172 79.4744 21.2916 78.8258 21.2916ZM73.8161 23.8539C73.4299 23.3213 72.9605 22.8521 72.428 22.4658C72.9606 22.0796 73.43 21.6102 73.8161 21.0777C74.2024 21.6103 74.6717 22.0796 75.2042 22.4658C74.6716 22.8521 74.2024 23.3214 73.8161 23.8539Z" fill="#FFB11B"/>
        <path d="M11.1938 21.2916C9.07894 21.2916 7.35816 19.5711 7.35816 17.456C7.35816 16.8074 6.83238 16.2817 6.18394 16.2817C5.5355 16.2817 5.00972 16.8074 5.00972 17.456C5.00972 19.571 3.28894 21.2916 1.1741 21.2916C0.525659 21.2916 -0.00012207 21.8172 -0.00012207 22.4658C-0.00012207 23.1144 0.525659 23.64 1.1741 23.64C3.28894 23.64 5.00972 25.3606 5.00972 27.4756C5.00972 28.1242 5.5355 28.6499 6.18394 28.6499C6.83238 28.6499 7.35816 28.1242 7.35816 27.4756C7.35816 25.3606 9.07894 23.64 11.1938 23.64C11.8422 23.64 12.368 23.1144 12.368 22.4658C12.368 21.8172 11.8422 21.2916 11.1938 21.2916ZM6.18394 23.8539C5.79769 23.3213 5.32847 22.8521 4.79582 22.4658C5.32863 22.0796 5.79785 21.6102 6.18394 21.0777C6.57019 21.6103 7.03941 22.0796 7.57207 22.4658C7.03957 22.8521 6.57019 23.3214 6.18394 23.8539Z" fill="#FFB11B"/>
        <path d="M46.2622 6.26219C43.4565 6.26219 41.174 3.97984 41.174 1.17406C41.1742 0.525625 40.6486 0 40 0C39.3515 0 38.8258 0.525625 38.8258 1.17422C38.8258 3.97984 36.5431 6.26234 33.7376 6.26234C33.0892 6.26234 32.5634 6.78797 32.5634 7.43656C32.5634 8.08516 33.0892 8.61078 33.7376 8.61078C36.5431 8.61078 38.8258 10.8933 38.8258 13.6989C38.8258 14.3475 39.3515 14.8731 40 14.8731C40.6486 14.8731 41.1742 14.3475 41.1742 13.6989C41.1742 10.8933 43.4567 8.61078 46.2623 8.61078C46.9109 8.61078 47.4365 8.08516 47.4365 7.43656C47.4365 6.78797 46.9108 6.26219 46.2622 6.26219ZM40 9.69172C39.4195 8.78797 38.6484 8.01687 37.7445 7.43641C38.6484 6.85594 39.4195 6.08484 40 5.18109C40.5804 6.08484 41.3515 6.85594 42.2553 7.43641C41.3515 8.01687 40.5804 8.78797 40 9.69172Z" fill="#FFB11B"/>
        <path d="M64.4462 39.6093L59.8787 26.668C59.537 25.6996 58.6173 25.049 57.5905 25.049H22.0964C21.0694 25.049 20.1498 25.6996 19.8081 26.6679L15.2406 39.6093C14.9753 40.361 15.5519 41.1743 16.3478 41.1743H63.3391C63.72 41.1743 64.0773 40.9893 64.2973 40.6783C64.5175 40.3672 64.5731 39.9686 64.4462 39.6093ZM18.0073 38.8258L22.0225 27.4494C22.0331 27.4193 22.0642 27.3972 22.0962 27.3972H57.5905C57.6225 27.3972 57.6536 27.4193 57.6644 27.4496L61.6795 38.8258H18.0073Z" fill="#FFB11B"/>
        <path d="M62.3875 55.1077C58.2175 55.1077 54.9511 57.2739 54.9511 60.0392C54.9511 62.8045 58.2175 64.9708 62.3875 64.9708C66.5575 64.9708 69.8239 62.8045 69.8239 60.0392C69.8239 57.2739 66.5575 55.1077 62.3875 55.1077ZM62.3875 62.6224C59.4753 62.6224 57.2994 61.2586 57.2994 60.0392C57.2994 58.8199 59.4752 57.4561 62.3875 57.4561C65.2997 57.4561 67.4756 58.8199 67.4756 60.0392C67.4756 61.2586 65.2997 62.6224 62.3875 62.6224Z" fill="#FFB11B"/>
        <path d="M17.2994 55.1077C13.1294 55.1077 9.86298 57.2739 9.86298 60.0392C9.86298 62.8045 13.1294 64.9708 17.2994 64.9708C21.4694 64.9708 24.7358 62.8045 24.7358 60.0392C24.7358 57.2739 21.4694 55.1077 17.2994 55.1077ZM17.2994 62.6224C14.3874 62.6224 12.2113 61.2586 12.2113 60.0392C12.2113 58.8199 14.3872 57.4561 17.2994 57.4561C20.2116 57.4561 22.3875 58.8199 22.3875 60.0392C22.3875 61.2586 20.2116 62.6224 17.2994 62.6224Z" fill="#FFB11B"/>
        <path d="M77.4169 37.5735H71.1547C70.6159 37.5735 70.1462 37.9402 70.0156 38.4629L69.1908 41.7621L63.4219 25.4174C62.5509 22.9498 60.2075 21.2916 57.5905 21.2916H22.0964C19.4794 21.2916 17.1359 22.9497 16.265 25.4176L10.4962 41.7623L9.67139 38.4629C9.54061 37.9401 9.07092 37.5735 8.53233 37.5735H2.26998C1.62155 37.5735 1.09576 38.0991 1.09576 38.7477V43.7576C1.09576 44.4062 1.62155 44.9318 2.26998 44.9318H8.75545L4.75248 50.5358C3.99905 51.5907 3.60076 52.8338 3.60076 54.1302V68.8065C3.60076 70.8401 4.5878 72.6473 6.10764 73.7749C6.10717 73.7887 6.10561 73.8022 6.10561 73.8162V77.5735C6.10561 78.9116 7.1942 80.0001 8.53217 80.0001H16.0469C17.385 80.0001 18.4734 78.9115 18.4734 77.5735V74.9904H61.2131V77.5735C61.2131 78.9116 62.3017 80.0001 63.6397 80.0001H71.1544C72.4925 80.0001 73.5809 78.9115 73.5809 77.5735V73.8162C73.5809 73.8022 73.5794 73.7887 73.5789 73.7749C75.0987 72.6473 76.0858 70.8401 76.0858 68.8065V54.1302C76.0858 52.8337 75.6873 51.5905 74.9339 50.5358L70.9309 44.9318H77.4165C78.0651 44.9318 78.5908 44.4062 78.5908 43.7576V38.7477C78.5909 38.099 78.0655 37.5735 77.4169 37.5735ZM3.4442 42.5832V39.9218H7.61545L8.28077 42.5832H3.4442ZM16.1253 77.5735C16.1253 77.6166 16.0903 77.6518 16.047 77.6518H8.53233C8.4892 77.6518 8.45405 77.6166 8.45405 77.5735V74.9904H9.78483H16.1253V77.5735ZM71.2328 77.5735C71.2328 77.6166 71.1976 77.6518 71.1545 77.6518H63.6398C63.5967 77.6518 63.5616 77.6166 63.5616 77.5735V74.9904H69.902H71.2328V77.5735ZM69.9022 72.6419H9.78467C8.0792 72.6419 6.63076 71.5229 6.13358 69.9805H73.5531C73.0559 71.5229 71.6076 72.6419 69.9022 72.6419ZM49.9412 59.961V62.6224H29.7456V59.961H49.9412ZM29.9301 57.6126C30.4273 56.0702 31.8756 54.9512 33.5812 54.9512H46.1058C47.8112 54.9512 49.2597 56.0702 49.7569 57.6126H29.9301ZM49.9412 64.9707V67.6321H29.7456V64.9707H49.9412ZM73.0234 51.9007C73.4908 52.5549 73.7378 53.3258 73.7378 54.1301V67.6323H52.2897V58.7868C52.2897 55.3769 49.5155 52.6029 46.1058 52.6029H33.5812C30.1714 52.6029 27.3973 55.3771 27.3973 58.7868V67.6323H5.94905V54.1301C5.94905 53.3258 6.19608 52.5549 6.66342 51.9007L11.6414 44.9316H54.8726C55.5212 44.9316 56.0469 44.406 56.0469 43.7574C56.0469 43.1088 55.5212 42.5832 54.8726 42.5832H12.6967L18.4794 26.199C19.0197 24.6685 20.4731 23.6399 22.0964 23.6399H57.5906C59.2137 23.6399 60.6672 24.6683 61.2076 26.199L66.9901 42.5832H59.8825C59.2339 42.5832 58.7083 43.1088 58.7083 43.7574C58.7083 44.406 59.2339 44.9316 59.8825 44.9316H68.0455L73.0234 51.9007ZM76.2426 42.5832H71.4059L72.0712 39.9218H76.2426V42.5832Z" fill="#FFB11B"/>
        <path d="M21.0567 51.3503H13.542C12.8936 51.3503 12.3678 51.876 12.3678 52.5246C12.3678 53.1732 12.8936 53.6988 13.542 53.6988H21.0567C21.7051 53.6988 22.2309 53.1732 22.2309 52.5246C22.2309 51.876 21.7051 51.3503 21.0567 51.3503Z" fill="#FFB11B"/>
        <path d="M66.1448 51.3503H58.6302C57.9816 51.3503 57.4559 51.876 57.4559 52.5246C57.4559 53.1732 57.9816 53.6988 58.6302 53.6988H66.1448C66.7934 53.6988 67.3191 53.1732 67.3191 52.5246C67.3191 51.876 66.7934 51.3503 66.1448 51.3503Z" fill="#FFB11B"/>
    </g>
    <defs>
        <clipPath id="clip0">
            <rect width="80" height="80" fill="white"/>
        </clipPath>
    </defs>
</svg>
