<svg width="40" height="40" viewBox="0 0 40 40" fill="none" xmlns="http://www.w3.org/2000/svg">
    <path d="M20 40C31.0457 40 40 31.0457 40 20C40 8.9543 31.0457 0 20 0C8.9543 0 0 8.9543 0 20C0 31.0457 8.9543 40 20 40Z" fill="#FFB11B"/>
    <path d="M14.8893 29.0221L25.1732 39.306C33.6905 37.0347 39.9997 29.2744 39.9997 20C39.9997 19.8107 39.9997 19.6214 39.9997 19.4322L31.924 11.9874L14.8893 29.0221Z" fill="#F09C1D"/>
    <path d="M20.5051 24.4795C21.3884 25.3628 21.3884 26.877 20.5051 27.7603L18.6754 29.5899C17.7922 30.4732 16.278 30.4732 15.3947 29.5899L7.38206 21.5142C6.49878 20.6309 6.49878 19.1167 7.38206 18.2334L9.21172 16.4038C10.095 15.5205 11.6092 15.5205 12.4925 16.4038L20.5051 24.4795Z" fill="white"/>
    <path d="M27.5088 10.5363C28.3921 9.65302 29.9062 9.65302 30.7895 10.5363L32.6192 12.366C33.5025 13.2492 33.5025 14.7634 32.6192 15.6467L18.7391 29.4637C17.8558 30.347 16.3416 30.347 15.4583 29.4637L13.6286 27.6341C12.7454 26.7508 12.7454 25.2366 13.6286 24.3533L27.5088 10.5363Z" fill="white"/>
</svg>
