<svg width="20" height="20" viewBox="0 0 20 20" fill="none" xmlns="http://www.w3.org/2000/svg">
    <g clip-path="url(#clip0)">
        <path d="M3.98505 18.0743C2.30625 17.105 1.72898 14.9507 2.69824 13.2719L8.59668 3.05547C9.88902 0.817061 12.7615 0.0473779 14.9999 1.33972C17.2383 2.63207 18.008 5.50456 16.7157 7.74297L10.8172 17.9594L9.80236 17.3734L15.7008 7.15703C16.6701 5.47822 16.0928 3.32385 14.414 2.3546C12.7352 1.38534 10.5808 1.9626 9.61155 3.6414L3.71311 13.8578C3.06694 14.977 3.45178 16.4132 4.57099 17.0594C5.69019 17.7056 7.12644 17.3207 7.77261 16.2015L12.4992 8.0149C12.8223 7.4553 12.6298 6.73717 12.0702 6.41409C11.5106 6.091 10.7925 6.28342 10.4694 6.84302L5.74286 15.0297L4.72799 14.4437L9.45455 6.25709C10.1007 5.13788 11.537 4.75304 12.6562 5.39922C13.7754 6.04539 14.1602 7.48163 13.514 8.60084L8.78748 16.7875C7.81823 18.4663 5.66385 19.0435 3.98505 18.0743Z" fill="#FFB11B"/>
    </g>
    <defs>
        <clipPath id="clip0">
            <rect width="20" height="20" fill="white"/>
        </clipPath>
    </defs>
</svg>
