<svg width="80" height="80" viewBox="0 0 80 80" fill="none" xmlns="http://www.w3.org/2000/svg">
    <g clip-path="url(#clip0)">
        <path d="M64.2842 66.3917H55.4736C54.8921 66.3917 54.4209 66.863 54.4209 67.4444C54.4209 68.0258 54.8921 68.497 55.4736 68.497H64.2842C64.8656 68.497 65.3368 68.0258 65.3368 67.4444C65.3368 66.863 64.8656 66.3917 64.2842 66.3917Z" fill="#FFB11B"/>
        <path d="M55.4736 64.5814H61.3473C61.9287 64.5814 62.4 64.1101 62.4 63.5287C62.4 62.9473 61.9287 62.4761 61.3473 62.4761H55.4736C54.8921 62.4761 54.4209 62.9473 54.4209 63.5287C54.4209 64.1101 54.8921 64.5814 55.4736 64.5814Z" fill="#FFB11B"/>
        <path d="M64.2842 58.5597H55.4736C54.8921 58.5597 54.4209 59.0309 54.4209 59.6123C54.4209 60.1938 54.8921 60.665 55.4736 60.665H64.2842C64.8656 60.665 65.3368 60.1938 65.3368 59.6123C65.3368 59.0309 64.8656 58.5597 64.2842 58.5597Z" fill="#FFB11B"/>
        <path d="M76.6122 46.8481C76.62 45.0192 76.0434 43.2358 74.9664 41.7577L73.7695 40.1391C79.6636 34.6369 81.59 26.0881 78.6255 18.5899C75.6611 11.0914 68.4098 6.17111 60.3467 6.18673C53.1834 6.16517 46.5833 10.0677 43.1502 16.3545C38.0964 15.8058 32.9966 16.8302 28.5469 19.288C25.1677 21.3167 23.3073 24.0058 23.2802 26.8694C23.28 26.8777 23.2755 26.8845 23.2755 26.8928V26.9331C23.2755 26.9494 23.2717 26.9653 23.2719 26.9817C23.272 26.996 23.2753 27.0099 23.2755 27.0241V31.1178L20.485 32.7922C20.2814 32.9147 20.125 33.1022 20.0414 33.3247L19.3562 35.1467L15.0511 35.2495C14.4961 35.2627 14.0467 35.7047 14.0247 36.2595L13.9389 38.4019L9.07453 38.5175C8.51953 38.5306 8.07016 38.9727 8.04813 39.5275L7.94891 41.9983L2.73656 42.131C2.55484 42.136 2.3775 42.1875 2.22156 42.2811L0.510625 43.3078C0.186094 43.5025 -0.00890577 43.8566 0.000312976 44.235L0.12875 49.6236V53.9802L0.12625 53.9914C0.126094 53.9967 0.128907 54.0013 0.12875 54.0066V54.0253C0.133907 54.0599 0.140782 54.0942 0.149532 54.128C0.155157 54.2289 0.175313 54.3286 0.209219 54.4239C0.232188 54.4669 0.258125 54.5081 0.287032 54.5472C0.325625 54.6225 0.373125 54.693 0.428438 54.757C0.476094 54.7983 0.527501 54.8352 0.581719 54.8672C0.635625 54.9122 0.693907 54.9514 0.755782 54.9846C0.832032 55.0119 0.911094 55.0303 0.991563 55.0395C1.04219 55.0558 1.09422 55.0678 1.14672 55.0758L1.17516 55.0766L1.18109 55.0778L1.18547 55.0769L10.3294 55.3502H10.3414L10.3567 55.3533C10.3702 55.3533 10.3814 55.3461 10.3947 55.3456C10.5037 55.3411 10.6114 55.3194 10.7136 55.2813C10.7483 55.2686 10.7823 55.2541 10.8155 55.2375C10.8441 55.2238 10.8752 55.2166 10.9025 55.2002L35.1694 40.6397C36.3373 40.803 37.5152 40.8863 38.6945 40.8889C41.3275 40.8902 43.9458 40.4964 46.4619 39.7208C47.6178 40.8853 48.9186 41.8967 50.3322 42.73C49.6488 43.995 49.2902 45.41 49.2887 46.848V69.8527C49.2031 71.9458 50.8237 73.7153 52.9164 73.8135H72.9853C75.0777 73.7149 76.6977 71.9455 76.612 69.8527V46.8481H76.6122ZM43.0863 22.6885C43.3822 21.0335 43.9205 19.4311 44.6838 17.9331C47.8842 11.5786 54.6058 7.78658 61.6995 8.33345C68.7934 8.88017 74.8544 13.6575 77.0433 20.4275C79.232 27.1974 77.1152 34.6188 71.6841 39.2152C69.7917 40.8331 67.5725 42.0236 65.1781 42.7056C63.9577 43.0574 62.7017 43.2722 61.4336 43.346C61.0484 42.8224 60.9667 42.135 61.2184 41.5358C69.7233 41.0625 76.3059 33.9052 76.0673 25.3905C75.8288 16.8758 68.8555 10.0983 60.3373 10.1022C54.8008 10.122 49.6769 13.0335 46.8258 17.7795C45.8834 19.3463 45.2262 21.0677 44.885 22.8639C44.7423 23.6183 44.658 24.3824 44.6322 25.1497C44.0561 25.3864 43.4375 25.5025 42.8147 25.4908C42.8261 24.5505 42.9169 23.6131 43.0863 22.6885ZM51.352 18.7627C50.7113 18.398 50.0455 18.0791 49.3595 17.8085C52.3523 13.6989 57.3863 11.6002 62.412 12.3669C67.4378 13.1336 71.617 16.6377 73.2484 21.4527C74.8798 26.2677 73.6913 31.5905 70.1666 35.2542L67.2328 31.2822C66.2458 29.8936 64.6539 29.061 62.9503 29.0422H62.9492C61.2456 29.0616 59.6542 29.8947 58.6678 31.2836L53.8417 37.8202C53.3027 37.5252 52.7845 37.1936 52.2908 36.8277C54.4858 35.357 55.8912 32.9666 56.1089 30.3335L56.1102 30.3272V25.9666L56.1122 25.9486C56.1958 23.1413 54.5048 20.5888 51.352 18.7627ZM9.30438 53.2125L2.23406 53.0013V50.7058L9.30438 50.9181V53.2125ZM10.08 48.8341L2.21 48.5986L2.11953 44.7972L3.06734 44.2288L8.98844 44.0777C9.54297 44.0633 9.99109 43.6214 10.0133 43.0672L10.1125 40.5986L14.9769 40.483C15.5319 40.4699 15.9812 40.0278 16.0033 39.473L16.0891 37.3306L20.1172 37.2345C20.5464 37.2244 20.9264 36.9545 21.0773 36.5525L21.8833 34.4088L25.6656 32.1391C26.3795 32.8341 27.1773 33.4372 28.0408 33.9344C28.1175 33.9789 28.2017 34.0167 28.2795 34.0603L8.26203 46.071C7.76359 46.3702 7.60203 47.0167 7.90125 47.5152C8.20047 48.0136 8.84703 48.1752 9.34547 47.876L30.5995 35.1231C31.0897 35.305 31.597 35.466 32.1161 35.6122L10.08 48.8341ZM33.8803 38.9581L11.4097 52.4405V50.492L33.8805 37.0091V38.9581H33.8803ZM29.0983 32.1144C26.7291 30.7397 25.4127 28.9264 25.3806 27.005V26.9233C25.3858 24.8367 26.9302 22.7145 29.6297 21.0936C33.4597 19.0016 37.8127 18.061 42.1647 18.3849C41.7297 19.45 41.3909 20.5522 41.1527 21.6778C40.7922 21.796 40.4447 21.9503 40.1155 22.1385C39.1784 22.6177 38.5675 23.5597 38.5123 24.6106C38.5633 25.5917 39.1353 26.4708 40.0116 26.9149C40.4855 27.1856 41.0027 27.3724 41.5402 27.4669C41.9883 27.5591 42.4447 27.6053 42.9022 27.6047C44.0238 27.618 45.1289 27.3341 46.1053 26.7819L46.2113 26.7125C47.073 26.2489 47.6397 25.3788 47.7152 24.4031C47.7292 23.7797 47.502 23.1749 47.0809 22.7149C47.3308 21.6422 47.7127 20.6047 48.2177 19.6258C48.9352 19.8869 49.6297 20.2069 50.2944 20.5827C52.7334 21.9953 54.0481 23.8645 54.0063 25.9172L54.0053 25.9219V25.9811C53.917 28.0186 52.4156 30.0145 49.7762 31.6003C49.0595 32.0256 48.313 32.3988 47.5425 32.7167C46.3708 33.1928 45.1602 33.5669 43.9241 33.8352C43.9045 33.8377 43.885 33.8413 43.8666 33.8455C38.5462 34.9835 32.8878 34.3208 29.0983 32.1144ZM40.763 24.2999C40.7495 24.4755 40.748 24.6564 40.7391 24.8342C40.6723 24.7716 40.6295 24.6877 40.6177 24.5969C40.6319 24.4845 40.683 24.38 40.763 24.2999ZM46.4148 37.5414C43.0583 38.6552 39.4994 39.0241 35.9856 38.6225V36.3477C36.8884 36.4435 37.7956 36.492 38.7036 36.4935C40.5681 36.4938 42.4275 36.3002 44.252 35.9158C44.2756 35.9127 44.2983 35.9081 44.3209 35.9035C45.6953 35.608 47.0411 35.1931 48.3433 34.6638C49.2097 34.3064 50.0489 33.8867 50.8545 33.4081C51.9977 32.7389 53.0361 31.9052 53.9366 30.9336C53.6314 32.7249 52.2486 34.4627 49.9067 35.9225C49.8728 35.9477 49.842 35.9652 49.7752 36.0067C48.7117 36.6342 47.5855 37.1486 46.4148 37.5414ZM48.6495 38.9167C49.2523 38.6555 49.8419 38.3597 50.4205 38.0369C51.0977 38.5936 51.8203 39.0925 52.5811 39.5281L51.5092 40.9799C50.4869 40.3935 49.5286 39.7019 48.6495 38.9167ZM72.9856 71.7083H52.9167C51.9891 71.6067 51.3128 70.7824 51.3944 69.8528V46.8481C51.3881 45.4581 51.8269 44.1027 52.6464 42.9799L60.3613 32.5353C60.9377 31.6686 61.9095 31.1478 62.9505 31.1475C63.9914 31.1472 64.9633 31.6678 65.5402 32.5342L68.5894 36.663C67.4423 37.5463 66.1594 38.237 64.7906 38.7086C63.2458 37.9119 61.3636 38.1992 60.1269 39.4206C59.9825 39.5653 59.8511 39.7225 59.7342 39.8905C58.5623 41.4713 58.7314 43.6733 60.1311 45.0566C60.1844 45.1117 60.2406 45.1638 60.2997 45.2128C61.0248 45.8652 61.9661 46.2256 62.9416 46.2244C64.0109 46.2236 65.0359 45.7963 65.7891 45.037C65.9227 44.8966 66.0469 44.7475 66.1609 44.5908C68.3256 43.9197 70.3556 42.8738 72.1588 41.5005L73.2756 43.0108C74.0841 44.1263 74.5155 45.4705 74.507 46.8481V69.8528C74.5884 70.7821 73.9127 71.6061 72.9856 71.7083Z" fill="#FFB11B"/>
    </g>
    <defs>
        <clipPath id="clip0">
            <rect width="80" height="80" fill="white"/>
        </clipPath>
    </defs>
</svg>
