<svg width="171" height="60" viewBox="0 0 171 60" fill="none" xmlns="http://www.w3.org/2000/svg">
    <path d="M98.7931 12.1417C106.203 2.4375 119.425 -0.525001 130.235 5.09166C130.755 5.3625 131.395 5.15833 131.666 4.6375C131.936 4.11667 131.732 3.475 131.212 3.20417C125.608 0.291666 119.105 -0.570835 112.902 0.787498C106.623 2.15833 101.015 5.73333 97.1081 10.85C96.3217 11.8792 95.6186 12.9542 94.9945 14.0625C95.7309 14.2042 96.459 14.3625 97.1788 14.5375C97.6698 13.7125 98.2023 12.9125 98.7931 12.1417Z" fill="white"/>
    <path d="M143.519 30.9209L145.612 31.2668C146.715 23.5418 144.505 15.4668 139.059 9.32093C138.668 8.88343 137.998 8.84176 137.561 9.23343C137.125 9.6251 137.083 10.2959 137.474 10.7334C142.483 16.3876 144.522 23.8126 143.519 30.9209Z" fill="white"/>
    <path d="M116.059 7.51658C127.002 6.05408 137.095 13.7833 138.556 24.7416C138.797 26.5624 138.78 28.3583 138.547 30.0958L140.644 30.4458C140.915 28.5041 140.935 26.4999 140.665 24.4624C139.051 12.3374 127.888 3.79158 115.785 5.40825C109.124 6.29575 103.548 10.0832 100.145 15.3291C100.852 15.5416 101.551 15.7666 102.242 15.9999C105.342 11.5082 110.243 8.29158 116.059 7.51658Z" fill="white"/>
    <path d="M117.045 22.9749C118.776 23.9832 120.486 25.0291 122.188 26.0999C121.722 24.8374 120.603 23.9249 119.288 23.7166L118.273 16.0749C118.194 15.4916 117.661 15.0832 117.079 15.1624C116.496 15.2416 116.088 15.7749 116.168 16.3582L117.045 22.9749Z" fill="white"/>
    <path d="M122.196 26.1041C122.184 26.0749 122.176 26.0416 122.167 26.0083L126.045 22.9499C126.274 22.7666 126.411 22.5083 126.444 22.2416C126.478 21.9708 126.407 21.6874 126.224 21.4583C125.862 20.9958 125.192 20.9166 124.73 21.2791L120.853 24.3374C120.366 23.9916 119.783 23.7583 119.151 23.6833C118.843 23.6458 118.543 23.6499 118.248 23.6874C119.575 24.4708 120.89 25.2791 122.196 26.1041Z" fill="white"/>
    <path d="M116.771 12.8543C117.353 12.7751 117.761 12.2417 117.682 11.6584L117.541 10.5918C117.462 10.0084 116.929 9.60008 116.346 9.67925C115.764 9.75842 115.356 10.2918 115.435 10.8751L115.577 11.9418C115.656 12.5251 116.188 12.9334 116.771 12.8543Z" fill="white"/>
    <path d="M109.311 13.4249C108.953 12.9583 108.288 12.8708 107.822 13.2291C107.356 13.5874 107.268 14.2541 107.626 14.7207L108.284 15.5749C108.525 15.8874 108.904 16.0291 109.266 15.9791C109.444 15.9541 109.619 15.8874 109.773 15.7666C110.239 15.4082 110.326 14.7416 109.969 14.2749L109.311 13.4249Z" fill="white"/>
    <path d="M133.222 25.4542C133.301 26.0376 133.833 26.4459 134.416 26.3667L135.481 26.2251C136.064 26.1459 136.471 25.6126 136.392 25.0292C136.313 24.4459 135.781 24.0376 135.198 24.1167L134.133 24.2584C133.555 24.3376 133.143 24.8709 133.222 25.4542Z" fill="white"/>
    <path d="M130.505 16.9541C130.039 17.3124 129.952 17.9791 130.309 18.4457C130.551 18.7582 130.929 18.8999 131.291 18.8499C131.47 18.8249 131.645 18.7582 131.799 18.6374L132.652 17.9791C133.118 17.6207 133.205 16.9541 132.847 16.4874C132.49 16.0208 131.824 15.9333 131.358 16.2916L130.505 16.9541Z" fill="white"/>
    <path d="M125.508 10.8708C124.967 10.6458 124.343 10.9041 124.123 11.4499L123.711 12.4458C123.486 12.9874 123.744 13.6124 124.289 13.8333C124.468 13.9083 124.655 13.9291 124.834 13.9041C125.196 13.8541 125.525 13.6208 125.679 13.2541L126.091 12.2583C126.307 11.7166 126.049 11.0958 125.508 10.8708Z" fill="white"/>
    <path d="M134.724 7.85009C135.31 7.85009 135.785 7.3744 135.785 6.78759C135.785 6.20079 135.31 5.7251 134.724 5.7251C134.138 5.7251 133.663 6.20079 133.663 6.78759C133.663 7.3744 134.138 7.85009 134.724 7.85009Z" fill="white"/>
    <path fill-rule="evenodd" clip-rule="evenodd" d="M80.7947 25.2876L83.3951 24.6459C83.2328 24.4459 83.0705 24.2501 82.9083 24.0501C83.445 23.3251 84.0525 22.6084 84.8305 21.9209C85.0801 21.7001 85.3755 21.5876 85.7 21.5459C87.3144 21.5417 88.9245 21.5376 90.5388 21.5292C90.8758 21.5501 91.2003 21.6459 91.4874 21.9501C91.9867 22.7626 92.3445 23.5334 92.228 24.1626C92.1365 24.4376 91.7745 24.8126 91.2544 25.2542L86.7319 25.7834C97.0002 26.5959 112.869 27.6459 114.874 27.5043C115.078 27.4834 115.232 27.4042 115.311 27.2334C115.336 26.6459 115.361 26.0542 115.386 25.4667C115.411 25.1917 115.303 24.9376 114.874 24.7167C112.394 23.3501 109.798 22.0167 106.873 20.7792C100.699 18.1167 95.0822 16.4126 90.6844 16.7917C86.0745 17.1917 82.8209 19.6417 77.9572 24.9334C78.0238 25.0001 79.0764 25.1251 80.7947 25.2876ZM21.4481 31.0001L25.5422 31.2043C26.4949 31.8751 27.3603 32.4626 28.3381 33.1542C28.6418 33.3709 28.725 33.4542 29.0995 33.4417C30.9426 33.3792 32.7857 33.3126 34.633 33.2501C35.253 33.2167 35.7273 33.5334 36.1683 33.9376C39.0266 33.6667 41.8849 33.3959 44.7433 33.1251C44.9679 33.1126 45.1968 33.0126 45.3341 32.8292C45.6627 32.3876 45.9789 31.9751 46.3076 31.5293C44.7016 30.7793 43.2122 30.0917 41.6062 29.3459C40.8365 28.9876 39.763 28.8917 38.9351 29.0001L28.363 30.3042C26.9859 29.8542 25.6254 29.4417 24.2399 29.1126C23.5617 28.9501 23.2538 28.9042 22.5632 28.9042C19.7423 28.9084 17.0421 29.0376 14.3502 29.1751C17.1128 29.1292 19.8754 29.0959 22.6422 29.1876C23.1831 29.2042 23.5076 29.2417 24.0443 29.3584C25.2925 29.6292 26.4908 29.9876 27.6641 30.3876L21.4481 31.0001ZM1.29011 39.8251C1.56471 37.7501 1.83515 35.6792 2.10975 33.6042C2.17216 33.3167 2.23873 33.0292 2.59654 32.9167C4.41055 32.3084 6.36186 31.7917 8.3839 31.3251C11.7415 31.0667 15.2197 30.9959 18.8187 31.0126C19.1349 31.0292 19.4968 31.1209 19.813 31.4084C21.548 32.7792 22.7837 34.1167 24.0693 35.4834C24.1983 35.6417 24.2149 35.8042 24.1151 36.0042C23.6782 36.7334 23.2455 37.4626 22.8087 38.1917C22.6214 38.4001 22.3219 38.5584 21.7602 38.5876C14.7746 38.9001 8.00114 39.3542 1.62712 40.0834C1.62296 40.0876 1.31923 39.8001 1.29011 39.8251ZM3.13741 44.4334C2.9377 44.5418 2.8753 44.6667 2.90858 44.8917C3.09997 45.8834 3.62004 47.2626 4.19004 48.2917C4.33566 48.4792 4.56449 48.4959 4.80581 48.5042C10.1022 48.2876 15.3945 48.0667 20.6909 47.8501C21.652 47.4667 23.1415 46.7626 24.1525 46.7542C25.8001 46.7376 27.2563 46.7167 28.9081 46.7001C27.5434 45.7251 25.8708 44.3876 24.5062 43.4126C24.1234 43.2709 10.7305 43.6376 3.13741 44.4334ZM25.9374 43.0501C25.8001 42.3626 25.796 41.7834 26.2952 41.6209C30.2894 41.1959 34.2835 40.7667 38.2735 40.3376C38.7853 40.3001 39.0391 40.8417 38.8976 41.3251C38.3942 43.0709 37.9324 44.6584 37.4414 46.3667C37.2001 47.2084 36.7757 47.0959 35.9228 47.0792C33.622 47.0334 31.9453 47.0167 29.6445 46.9751C30.9967 46.7792 31.9994 46.7292 33.3973 46.6251C34.1629 46.5667 34.321 46.5084 34.5165 45.7501C34.8411 44.5084 35.099 43.6209 35.4235 42.3792C35.6024 41.6917 35.2946 41.4542 34.5665 41.5042C31.7914 41.7084 29.4531 41.9167 26.678 42.1167C26.187 42.1751 25.9291 42.3709 25.9374 43.0501ZM45.8749 42.2209C47.4851 32.4876 53.9589 27.1292 62.8168 30.4376C52.4528 24.9001 46.1703 34.5584 45.8749 42.2209ZM1.11953 49.1917C1.30675 48.9209 1.49398 48.6501 1.68121 48.3792C1.62712 46.5709 1.56887 44.7626 1.51478 42.9542C1.37332 42.1584 1.23186 41.3626 1.0904 40.5667C0.982229 39.9584 0.990549 39.7459 1.08208 39.1334C1.39413 37.0209 1.69785 35.0626 2.00989 32.9501C2.06814 32.7167 2.21376 32.5167 2.41763 32.3417L4.3107 31.0417L8.84157 29.7709L4.93894 30.6084L6.07479 29.8251C21.5522 23.8709 32.69 23.9834 51.9827 23.2126C52.2073 23.2167 52.64 23.2334 52.873 23.2417C45.5296 23.8084 41.9889 25.5542 37.4497 28.7876C41.4814 26.4501 46.4075 23.9168 54.0879 24.1584C61.4438 24.3876 68.184 24.8167 75.5399 25.0501C75.5399 25.0501 75.5274 24.8459 75.5232 24.6418C78.4773 21.7251 81.3564 19.0251 84.8596 16.8709C85.18 16.5751 84.8887 16.3376 84.5975 16.3167C79.6048 15.6376 71.5457 16.2542 64.8971 18.1334C63.3119 18.5834 61.0153 19.4042 58.6895 20.3167C60.2664 19.6334 62.0679 18.8792 64.2023 18.0167C71.4168 15.8209 79.559 15.1959 87.0606 14.9792C89.0868 14.9251 91.2295 15.1501 93.1974 15.4751C104.747 17.4001 114.595 23.1584 124.206 29.3251C127.318 30.0792 130.414 30.8251 132.731 30.9459C133.039 31.0876 133.347 31.2292 133.651 31.3667C133.863 31.6834 134.063 32.0626 134.254 32.4917H63.8154C62.2385 31.3667 60.5535 30.9167 58.9808 30.9667C52.8689 31.1542 47.3977 35.4626 47.8221 48.9542C43.3495 48.9376 36.0643 49.2418 31.5875 49.2251C31.3379 49.2251 31.1714 48.9959 30.9884 48.7001C26.8652 48.6209 22.9751 48.5501 18.8561 48.4751C18.8561 48.4709 1.14449 49.2209 1.11953 49.1917Z" fill="#FFB11B"/>
    <path fill-rule="evenodd" clip-rule="evenodd" d="M88.3209 55.9917C89.0074 55.9917 89.5608 56.55 89.5608 57.2375C89.5608 57.925 89.0033 58.4834 88.3209 58.4834C87.6344 58.4834 87.0769 57.925 87.0769 57.2375C87.0811 56.55 87.6344 55.9917 88.3209 55.9917Z" fill="#FFB11B"/>
    <path d="M62.7373 49.3043L61.7471 45.1751H60.7444L59.6376 49.3043H52.6354L56.0054 36.6626H70.0849C70.347 36.6626 70.6341 36.6959 70.9378 36.7626C71.2415 36.8293 71.5286 36.9501 71.7907 37.1209C72.0528 37.2918 72.2692 37.5168 72.4398 37.7918C72.6103 38.0668 72.6936 38.4168 72.6936 38.8418C72.6936 39.1293 72.6436 39.4334 72.5479 39.7501L71.9405 41.9793C71.8614 42.2543 71.7533 42.5418 71.6076 42.8376C71.462 43.1334 71.279 43.4126 71.0543 43.6751C70.8296 43.9376 70.5675 44.1751 70.2638 44.3876C69.9601 44.6001 69.6106 44.7709 69.2153 44.9001L70.3595 49.3084H62.7373V49.3043ZM65.5498 39.8459C65.6081 39.6709 65.6372 39.5001 65.6372 39.3334C65.6372 39.0959 65.5665 38.9376 65.4209 38.8543C65.2752 38.7709 65.0714 38.7334 64.8092 38.7334H62.4585L61.3144 43.0626H63.6817C64.3641 43.0626 64.8009 42.6876 65.0006 41.9334L65.5498 39.8459Z" fill="white"/>
    <path d="M90.3429 45.5918C90.1931 46.1459 90.01 46.6459 89.7895 47.1001C89.569 47.5543 89.2902 47.9418 88.9615 48.2668C88.6329 48.5918 88.2376 48.8459 87.7883 49.0293C87.3348 49.2126 86.7939 49.3043 86.1656 49.3043H74.3912C74.075 49.3043 73.7671 49.2751 73.4675 49.2168C73.1638 49.1584 72.9017 49.0584 72.677 48.9126C72.4523 48.7668 72.2693 48.5626 72.132 48.3001C71.9947 48.0376 71.924 47.6918 71.924 47.2668C71.924 46.7793 72.0113 46.2209 72.1819 45.5876L73.5799 40.3918C73.713 39.9209 73.8794 39.4626 74.075 39.0126C74.2705 38.5626 74.5285 38.1626 74.8488 37.8168C75.1692 37.4709 75.5686 37.1918 76.0429 36.9793C76.5172 36.7668 77.0956 36.6626 77.7779 36.6626H89.5357C91.1667 36.6626 91.9821 37.3668 91.9821 38.7751C91.9821 39.2251 91.9031 39.7668 91.7408 40.3959L90.3429 45.5918ZM84.7594 39.5876C84.7843 39.4584 84.7968 39.3709 84.7968 39.3168C84.7968 38.9584 84.5388 38.7751 84.0271 38.7751H82.1382C81.5224 38.7751 81.1313 39.0459 80.9732 39.5834L79.1634 46.4001C79.1384 46.5293 79.1259 46.6209 79.1259 46.6793C79.1259 47.0334 79.3797 47.2084 79.8873 47.2084H81.7845C82.4003 47.2084 82.7914 46.9376 82.9495 46.4001L84.7594 39.5876Z" fill="white"/>
    <path d="M109.677 49.3043L112.286 39.5834C112.323 39.4543 112.344 39.3376 112.344 39.2376C112.344 38.9626 112.132 38.8209 111.707 38.8209H109.898L107.093 49.3043H100.191L102.808 39.5251C102.841 39.4626 102.858 39.4084 102.858 39.3709V39.2376C102.858 38.9626 102.646 38.8209 102.221 38.8209H100.411L97.6114 49.3043H90.709L94.0791 36.6626H116.821C117.711 36.6626 118.339 36.8459 118.697 37.2084C119.055 37.5709 119.238 38.0501 119.238 38.6418C119.238 39.0418 119.167 39.5084 119.026 40.0418L116.542 49.3084H109.677V49.3043Z" fill="white"/>
    <path d="M136.13 46.5001C135.905 47.3543 135.518 48.0376 134.965 48.5459C134.411 49.0543 133.654 49.3084 132.693 49.3084H117.827L121.218 36.6667H135.759C136.55 36.6667 137.116 36.8084 137.465 37.0917C137.811 37.3751 137.985 37.7917 137.985 38.3459C137.985 38.6792 137.927 39.0626 137.811 39.4917L137.511 40.6376C137.461 40.8251 137.382 41.0084 137.286 41.1917C137.187 41.3751 137.078 41.5501 136.958 41.7126C136.837 41.8751 136.716 42.0168 136.592 42.1376C136.467 42.2584 136.346 42.3417 136.23 42.3917C136.384 42.5001 136.525 42.6501 136.65 42.8418C136.775 43.0334 136.837 43.2792 136.837 43.5792C136.837 43.6834 136.825 43.7876 136.8 43.8959L136.741 44.2334L136.13 46.5001ZM129.56 44.7459C129.598 44.6126 129.618 44.4918 129.618 44.3876C129.618 44.1876 129.556 44.0334 129.431 43.9251C129.306 43.8168 129.094 43.7626 128.791 43.7626H126.327L125.395 47.2168H127.842C128.229 47.2168 128.52 47.1459 128.724 47.0001C128.928 46.8542 129.073 46.6126 129.173 46.2709L129.56 44.7459ZM130.754 39.5084L130.804 39.3543C130.817 39.3043 130.825 39.2501 130.825 39.1917C130.825 38.9042 130.621 38.7584 130.209 38.7584H127.667L126.877 41.7459H129.398C129.635 41.7459 129.843 41.6793 130.018 41.5501C130.193 41.4168 130.317 41.2209 130.388 40.9584L130.754 39.5084Z" fill="white"/>
    <path d="M139.325 49.3043C138.572 49.3043 138.04 49.1459 137.715 48.8209C137.395 48.5001 137.233 48.0709 137.233 47.5293C137.233 47.2418 137.283 46.8959 137.387 46.4959L139.263 39.4668C139.488 38.6626 139.879 37.9959 140.436 37.4626C140.994 36.9293 141.747 36.6626 142.691 36.6626H152.136L151.587 38.7751H147.543C147.239 38.7751 146.998 38.8668 146.814 39.0543C146.631 39.2418 146.498 39.4834 146.415 39.7876L145.903 41.6793H150.064L149.494 43.8209H145.333L144.697 46.2501C144.659 46.3918 144.639 46.5126 144.639 46.6168C144.639 47.0043 144.926 47.1959 145.504 47.1959H149.327L148.757 49.3084H139.325V49.3043Z" fill="white"/>
    <path d="M160.228 49.3043L159.238 45.1751H158.235L157.128 49.3043H150.126L153.496 36.6626H167.576C167.838 36.6626 168.125 36.6959 168.429 36.7626C168.732 36.8293 169.019 36.9501 169.281 37.1209C169.544 37.2918 169.76 37.5168 169.93 37.7918C170.101 38.0668 170.184 38.4168 170.184 38.8418C170.184 39.1293 170.134 39.4334 170.039 39.7501L169.431 41.9793C169.352 42.2543 169.244 42.5418 169.098 42.8376C168.953 43.1334 168.77 43.4126 168.545 43.6751C168.32 43.9376 168.058 44.1751 167.754 44.3876C167.455 44.6001 167.101 44.7709 166.706 44.9001L167.85 49.3084H160.228V49.3043ZM163.041 39.8459C163.099 39.6709 163.128 39.5001 163.128 39.3334C163.128 39.0959 163.057 38.9376 162.912 38.8543C162.766 38.7709 162.562 38.7334 162.3 38.7334H159.949L158.805 43.0626H161.172C161.855 43.0626 162.292 42.6876 162.491 41.9334L163.041 39.8459Z" fill="white"/>
    <path d="M9.24487 58.8817C9.14086 59.2817 8.95779 59.5983 8.704 59.8358C8.4502 60.0733 8.09239 60.19 7.64721 60.19H0.723999L2.30086 54.3025H9.07013C9.43626 54.3025 9.70254 54.3692 9.8648 54.4983C10.0271 54.6317 10.1061 54.8233 10.1061 55.0817C10.1061 55.2358 10.0812 55.415 10.0271 55.615L9.88977 56.1483C9.8648 56.2358 9.83152 56.3233 9.78575 56.4067C9.73999 56.49 9.69005 56.5733 9.63181 56.6483C9.57772 56.7233 9.51947 56.79 9.46123 56.8442C9.40298 56.8983 9.34889 56.94 9.2948 56.965C9.36553 57.015 9.4321 57.0858 9.49035 57.1733C9.5486 57.2608 9.57772 57.3775 9.57772 57.515C9.57772 57.565 9.57356 57.6108 9.56108 57.665L9.53611 57.8233L9.24487 58.8817ZM6.19101 58.065C6.20765 58.0025 6.21597 57.9483 6.21597 57.8983C6.21597 57.8067 6.18684 57.7358 6.1286 57.6817C6.07035 57.6275 5.97049 57.6067 5.82903 57.6067H4.68071L4.24802 59.215H5.38801C5.56692 59.215 5.70422 59.1817 5.79991 59.115C5.89561 59.0483 5.96218 58.9358 6.00794 58.7775L6.19101 58.065ZM6.74437 55.6275L6.76516 55.5566C6.76933 55.5316 6.77349 55.5067 6.77349 55.4817C6.77349 55.3483 6.67779 55.2817 6.48641 55.2817H5.3048L4.93867 56.6733H6.11196C6.22429 56.6733 6.31999 56.6442 6.39904 56.5817C6.48225 56.5192 6.54049 56.4275 6.56962 56.3067L6.74437 55.6275Z" fill="white"/>
    <path d="M17.5745 58.8417C17.4705 59.2417 17.2833 59.5626 17.0087 59.8126C16.7383 60.0626 16.3513 60.1834 15.8562 60.1834H9.57373L11.1423 54.2959H14.2253L13.8134 55.8584H17.0087C17.3956 55.8584 17.6702 55.9334 17.8325 56.0876C17.9948 56.2417 18.078 56.4459 18.078 56.7042C18.078 56.8501 18.053 57.0167 18.0072 57.2001L17.5745 58.8417ZM14.9742 57.0417C14.9867 56.9917 14.9908 56.9417 14.9908 56.8917C14.9908 56.7709 14.9118 56.7084 14.7537 56.7084H13.8924C13.7884 56.7084 13.7052 56.7334 13.6428 56.7834C13.5804 56.8334 13.5346 56.9209 13.5055 57.0417L12.9729 59.0084C12.9604 59.0584 12.9563 59.1042 12.9563 59.1584C12.9563 59.2792 13.0353 59.3417 13.1934 59.3417H14.0547C14.1587 59.3417 14.2419 59.3167 14.3043 59.2667C14.3667 59.2167 14.4125 59.1292 14.4416 59.0084L14.9742 57.0417ZM20.5161 60.1876L22.0846 54.3001H19.0016L17.4331 60.1876H20.5161Z" fill="white"/>
    <path d="M26.7194 60.1876L26.1827 57.7667L25.4837 58.2459L24.9678 60.1834H21.6643L23.2328 54.2959H26.5363L25.8415 56.9167L29.7608 54.2959H31.2586L29.249 55.6751L30.2933 60.1834H26.7194V60.1876Z" fill="white"/>
    <path d="M38.66 58.9167C38.5518 59.3251 38.3646 59.6417 38.0942 59.8584C37.8237 60.0751 37.4909 60.1876 37.0915 60.1876H31.6536L31.8824 59.3376H35.0736C35.2567 59.3376 35.3815 59.3126 35.448 59.2584C35.5146 59.2042 35.5645 59.1292 35.5937 59.0209L35.7102 58.6209H32.6064C32.2153 58.6209 31.9323 58.5376 31.7576 58.3709C31.5829 58.2042 31.4955 57.9709 31.4955 57.6751C31.4955 57.4792 31.5246 57.2709 31.587 57.0501L32.3234 54.2959H35.4064L34.5743 57.4167C34.5577 57.4834 34.5493 57.5376 34.5493 57.5834C34.5493 57.7126 34.645 57.7751 34.8406 57.7751H35.6436C35.6894 57.7751 35.731 57.7709 35.7684 57.7626C35.8017 57.7542 35.835 57.7376 35.8599 57.7167C35.8849 57.6917 35.9099 57.6542 35.9265 57.6084C35.9432 57.5584 35.964 57.4917 35.9889 57.4084L36.8294 54.2959H39.9123L38.66 58.9167Z" fill="white"/>
    <path d="M49.3777 54.3L47.8092 60.1876H44.5223L45.7871 55.4417H44.1146L42.8498 60.1876H39.5463L41.1148 54.3H49.3777Z" fill="white"/>
    <path d="M54.5869 60.1876L54.5411 59.15H52.3069L51.6745 60.1876H50.5553L54.0169 54.3H57.828L58.0402 60.1876H54.5869ZM54.5078 55.4125L52.956 58.0959H54.5245L54.5078 55.4125Z" fill="white"/>
    <path d="M66.827 58.8792C66.723 59.2792 66.5399 59.5959 66.2861 59.8334C66.0323 60.0709 65.6745 60.1876 65.2293 60.1876H58.3062L59.883 54.3H66.6523C67.0184 54.3 67.2847 54.3667 67.4469 54.4959C67.6092 54.6292 67.6882 54.8209 67.6882 55.0792C67.6882 55.2334 67.6633 55.4125 67.6092 55.6125L67.4719 56.1459C67.4469 56.2334 67.4137 56.3209 67.3679 56.4042C67.3221 56.4875 67.2722 56.5709 67.2139 56.6459C67.1598 56.7209 67.1016 56.7876 67.0434 56.8417C66.9851 56.8959 66.931 56.9375 66.8769 56.9625C66.9477 57.0125 67.0142 57.0834 67.0725 57.1709C67.1307 57.2584 67.1599 57.375 67.1599 57.5125C67.1599 57.5625 67.1557 57.6084 67.1432 57.6626L67.1183 57.8209L66.827 58.8792ZM63.769 58.0626C63.7856 58.0001 63.7939 57.9459 63.7939 57.8959C63.7939 57.8042 63.7648 57.7334 63.7066 57.6792C63.6483 57.625 63.5485 57.6042 63.407 57.6042H62.2587L61.826 59.2125H62.966C63.1449 59.2125 63.2822 59.1792 63.3779 59.1125C63.4736 59.0459 63.5401 58.9334 63.5859 58.775L63.769 58.0626ZM64.3223 55.625L64.3431 55.5542C64.3473 55.5292 64.3515 55.5042 64.3515 55.4792C64.3515 55.3459 64.2558 55.2792 64.0644 55.2792H62.8828L62.5167 56.6709H63.6899C63.8023 56.6709 63.898 56.6417 63.977 56.5792C64.0602 56.5167 64.1185 56.4251 64.1476 56.3042L64.3223 55.625Z" fill="white"/>
    <path d="M73.135 55.325L71.8286 60.1876H68.4086L69.7067 55.325H68.1007L68.367 54.3H75.0073L74.741 55.325H73.135Z" fill="white"/>
    <path d="M82.629 58.4584C82.5583 58.7167 82.4751 58.9501 82.3711 59.1626C82.2671 59.3751 82.1381 59.5542 81.9841 59.7042C81.8302 59.8542 81.6471 59.9751 81.4391 60.0584C81.2269 60.1417 80.9773 60.1876 80.6819 60.1876H75.1982C75.0526 60.1876 74.907 60.1751 74.7697 60.1459C74.6282 60.1209 74.5076 60.0709 74.4036 60.0042C74.2996 59.9376 74.2163 59.8417 74.1498 59.7209C74.0874 59.6001 74.0541 59.4376 74.0541 59.2417C74.0541 59.0126 74.0957 58.7542 74.1747 58.4584L74.8238 56.0376C74.8862 55.8209 74.9653 55.6042 75.0526 55.3959C75.1442 55.1876 75.2648 55.0001 75.4146 54.8376C75.5644 54.6751 75.7474 54.5459 75.9721 54.4459C76.1926 54.3459 76.4631 54.2959 76.7793 54.2959H82.2546C83.0118 54.2959 83.3946 54.6251 83.3946 55.2792C83.3946 55.4876 83.3572 55.7417 83.2823 56.0334L82.629 58.4584ZM80.0287 55.6584C80.0412 55.6001 80.0453 55.5584 80.0453 55.5334C80.0453 55.3667 79.9247 55.2834 79.6875 55.2834H78.8096C78.5226 55.2834 78.3436 55.4084 78.2688 55.6584L77.4242 58.8334C77.4117 58.8917 77.4075 58.9376 77.4075 58.9626C77.4075 59.1292 77.524 59.2084 77.7612 59.2084H78.6432C78.9303 59.2084 79.1092 59.0834 79.1841 58.8292L80.0287 55.6584Z" fill="white"/>
    <path d="M98.4312 54.3025C98.7807 54.3025 99.0304 54.3775 99.1801 54.5275C99.3299 54.6775 99.4048 54.8775 99.4048 55.1275C99.4048 55.2608 99.3799 55.4233 99.3341 55.6067C99.2134 56.2525 99.0844 56.7025 98.9388 56.9525C98.7932 57.2025 98.6101 57.3442 98.3813 57.3775C98.5769 57.4858 98.6934 57.6192 98.7225 57.7775C98.7516 57.9358 98.6642 58.3025 98.4562 58.8816C98.3522 59.2566 98.1691 59.5691 97.907 59.815C97.6491 60.065 97.2996 60.1858 96.8585 60.1858H92.4608L92.7146 59.2025H94.5993C94.7408 59.2025 94.8531 59.1608 94.9364 59.0733C95.0196 58.9858 95.082 58.8733 95.1236 58.7317L95.3607 57.8525H93.9711L94.2374 56.8567H95.627L95.9224 55.7275C95.9391 55.6608 95.9474 55.6066 95.9474 55.5566C95.9474 55.3775 95.8142 55.2858 95.5438 55.2858H93.7631L94.0293 54.3025H98.4312Z" fill="white"/>
    <path d="M102.513 60.1876L102.467 59.15H100.233L99.6004 60.1876H98.4812L101.943 54.3H105.754L105.966 60.1876H102.513ZM102.434 55.4125L100.882 58.0959H102.45L102.434 55.4125Z" fill="white"/>
    <path d="M110.422 59.0792C110.364 59.2751 110.239 59.4709 110.056 59.6626C109.914 59.8042 109.752 59.9292 109.569 60.0292C109.382 60.1292 109.178 60.1834 108.957 60.1834H106.12L106.374 59.2H106.819C107.052 59.1959 107.197 59.1126 107.26 58.9501L108.113 55.8709C108.179 55.6209 108.263 55.4042 108.362 55.2209C108.521 54.9292 108.729 54.7 108.991 54.5417C109.253 54.3834 109.586 54.3 109.989 54.3H116.663L115.04 60.1876H111.737L113.076 55.3084H111.816C111.62 55.3084 111.491 55.3709 111.42 55.5001C111.395 55.5501 111.371 55.6 111.358 55.6625L110.422 59.0792Z" fill="white"/>
    <path d="M125.084 58.4584C125.013 58.7167 124.93 58.9501 124.826 59.1626C124.722 59.3751 124.593 59.5542 124.439 59.7042C124.285 59.8542 124.102 59.9751 123.894 60.0584C123.682 60.1417 123.432 60.1876 123.136 60.1876H117.653C117.507 60.1876 117.362 60.1751 117.224 60.1459C117.087 60.1167 116.962 60.0709 116.858 60.0042C116.754 59.9376 116.671 59.8417 116.604 59.7209C116.542 59.6001 116.509 59.4376 116.509 59.2417C116.509 59.0126 116.55 58.7542 116.629 58.4584L117.278 56.0376C117.341 55.8209 117.42 55.6042 117.511 55.3959C117.603 55.1876 117.724 55.0001 117.873 54.8376C118.023 54.6751 118.206 54.5459 118.431 54.4459C118.651 54.3459 118.922 54.2959 119.238 54.2959H124.713C125.471 54.2959 125.853 54.6251 125.853 55.2792C125.853 55.4876 125.816 55.7417 125.741 56.0334L125.084 58.4584ZM122.483 55.6584C122.496 55.6001 122.5 55.5584 122.5 55.5334C122.5 55.3667 122.379 55.2834 122.142 55.2834H121.264C120.977 55.2834 120.798 55.4084 120.723 55.6584L119.879 58.8334C119.866 58.8917 119.862 58.9376 119.862 58.9626C119.862 59.1292 119.979 59.2084 120.216 59.2084H121.098C121.385 59.2084 121.564 59.0834 121.639 58.8292L122.483 55.6584Z" fill="white"/>
    <path d="M125.25 60.1876L126.844 54.3H133.372L133.118 55.275H129.852L128.525 60.1876H125.25Z" fill="white"/>
    <path d="M138.773 60.1876L138.727 59.15H136.493L135.86 60.1876H134.741L138.203 54.3H142.014L142.226 60.1876H138.773ZM138.694 55.4125L137.142 58.0959H138.71L138.694 55.4125Z" fill="white"/>
    <path d="M151.013 58.8792C150.909 59.2792 150.726 59.5959 150.472 59.8334C150.214 60.0709 149.86 60.1876 149.415 60.1876H142.492L144.069 54.3H150.838C151.204 54.3 151.471 54.3667 151.633 54.4959C151.795 54.6292 151.874 54.8209 151.874 55.0792C151.874 55.2334 151.849 55.4125 151.795 55.6125L151.658 56.1459C151.633 56.2334 151.6 56.3209 151.554 56.4042C151.508 56.4875 151.458 56.5709 151.4 56.6459C151.346 56.7209 151.288 56.7876 151.229 56.8417C151.171 56.8959 151.113 56.9375 151.063 56.9625C151.134 57.0125 151.2 57.0834 151.258 57.1709C151.317 57.2584 151.346 57.375 151.346 57.5125C151.346 57.5625 151.342 57.6084 151.329 57.6626L151.304 57.8209L151.013 58.8792ZM147.955 58.0626C147.972 58.0001 147.98 57.9459 147.98 57.8959C147.98 57.8042 147.951 57.7334 147.892 57.6792C147.834 57.6292 147.734 57.6042 147.593 57.6042H146.445L146.008 59.2125H147.148C147.327 59.2125 147.464 59.1792 147.56 59.1125C147.655 59.0459 147.722 58.9334 147.768 58.775L147.955 58.0626ZM148.508 55.625L148.529 55.5542C148.533 55.5292 148.537 55.5042 148.537 55.4792C148.537 55.3459 148.442 55.2792 148.25 55.2792H147.069L146.703 56.6667H147.876C147.988 56.6667 148.084 56.6375 148.167 56.575C148.25 56.5125 148.309 56.4209 148.342 56.3L148.508 55.625Z" fill="white"/>
    <path d="M157.316 55.325L156.014 60.1876H152.594L153.892 55.325H152.286L152.552 54.3H159.192L158.926 55.325H157.316Z" fill="white"/>
    <path d="M166.815 58.4584C166.744 58.7167 166.661 58.9501 166.557 59.1626C166.453 59.3751 166.324 59.5542 166.17 59.7042C166.016 59.8542 165.833 59.9751 165.625 60.0584C165.413 60.1417 165.163 60.1876 164.868 60.1876H159.384C159.238 60.1876 159.093 60.1751 158.955 60.1459C158.818 60.1167 158.693 60.0709 158.589 60.0042C158.485 59.9376 158.402 59.8417 158.335 59.7209C158.273 59.6001 158.24 59.4376 158.24 59.2417C158.24 59.0126 158.281 58.7542 158.36 58.4584L159.009 56.0376C159.072 55.8209 159.151 55.6042 159.242 55.3959C159.334 55.1876 159.455 55.0001 159.604 54.8376C159.754 54.6751 159.937 54.5459 160.162 54.4459C160.382 54.3459 160.653 54.2959 160.969 54.2959H166.444C167.202 54.2959 167.584 54.6251 167.584 55.2792C167.584 55.4876 167.547 55.7417 167.472 56.0334L166.815 58.4584ZM164.214 55.6584C164.227 55.6001 164.231 55.5584 164.231 55.5334C164.231 55.3667 164.11 55.2834 163.873 55.2834H162.995C162.708 55.2834 162.529 55.4084 162.454 55.6584L161.61 58.8334C161.597 58.8917 161.593 58.9376 161.593 58.9626C161.593 59.1292 161.71 59.2084 161.947 59.2084H162.829C163.116 59.2084 163.295 59.0834 163.37 58.8292L164.214 55.6584Z" fill="white"/>
</svg>
