<svg width="80" height="80" viewBox="0 0 80 80" fill="none" xmlns="http://www.w3.org/2000/svg">
    <g clip-path="url(#clip0)">
        <path d="M49.4078 18.3774H49.5013C49.5014 18.3774 49.4286 18.1946 49.4078 18.3774Z" fill="#FFB11B"/>
        <path d="M26.8363 18.3774H26.9297C26.909 18.1946 26.8363 18.3774 26.8363 18.3774Z" fill="#FFB11B"/>
        <path d="M71.952 24.1324C71.4275 23.2951 70.6085 22.7121 69.6456 22.4909L64.5742 21.3255L66.9158 20.6701C68.856 20.1271 70.0249 18.0549 69.481 16.1112C68.9378 14.171 66.8659 13.0024 64.9219 13.546L54.0037 16.6018C53.7195 16.0846 53.3153 15.6419 52.8284 15.3126C55.0442 11.189 58.2366 4.19129 58.2366 1.18081C58.2366 0.446591 57.5425 -0.121535 56.8223 0.0236211C52.4894 0.898935 48.4495 1.30284 44.4768 1.25956C40.3934 1.21472 35.3114 0.707529 32.1182 0.0262773C31.131 -0.184348 30.3388 0.920342 30.8595 1.78816C31.6376 3.08503 32.1143 4.45629 32.3764 5.83832C28.3687 5.96113 24.2126 5.47551 21.067 3.90254C20.2196 3.47878 19.2194 4.22019 19.3745 5.15254C20.3638 11.088 22.3598 14.568 24.3609 17.1972H24.3165C22.277 17.1972 20.6176 18.8566 20.6176 20.8962C20.6176 22.7719 22.0215 24.3249 23.8334 24.5626C22.5126 26.7748 20.6263 28.8737 18.6444 31.0762C14.4299 35.7599 9.65287 41.0687 8.04568 49.6404C7.27661 53.7419 7.30224 57.5795 8.12209 61.047C8.8874 64.2842 10.3451 67.2144 12.4543 69.756C15.2541 73.1297 19.1009 75.7474 23.8874 77.5367C28.1992 79.1485 33.1371 80.0003 38.1678 80.0003C43.1984 80.0003 48.1365 79.1485 52.4481 77.5367C57.2347 75.7474 61.0814 73.1295 63.8813 69.756C65.9905 67.2144 67.4481 64.2844 68.2135 61.047C69.0331 57.5795 69.0589 53.7417 68.2899 49.6404C66.6827 41.0689 61.9058 35.7601 57.6912 31.0763C56.2605 29.4862 54.8992 27.9701 53.758 26.4313L67.9891 29.701C69.4967 30.0474 71.1033 29.3879 71.9361 28.0851C72.6983 26.8923 72.7028 25.3305 71.952 24.1324ZM44.4509 3.62035C48.0858 3.66003 51.7645 3.34222 55.6503 2.64972C54.9378 5.56269 52.6498 10.7436 50.4797 14.6904C48.9758 14.8036 47.7204 15.8196 47.2551 17.1971H43.9776C43.9036 17.0376 43.8215 16.8627 43.7301 16.6685C42.7167 14.5141 40.6076 10.0313 40.6076 6.21754C40.6076 5.48441 39.9153 4.91597 39.1956 5.06004C37.8218 5.33488 36.3104 5.55723 34.7378 5.6966C34.5729 4.7116 34.3171 3.72503 33.9453 2.75472C37.1171 3.24566 41.1126 3.58363 44.4509 3.62035ZM52.0978 18.3774V23.4143C52.0978 24.1519 51.4976 24.7523 50.7598 24.7523C50.022 24.7523 49.4219 24.1521 49.4219 23.4143V18.3774C49.4219 17.6396 50.022 17.0394 50.7598 17.0394C51.4976 17.0394 52.0978 17.6397 52.0978 18.3774ZM22.1263 6.89176C25.0776 7.89911 28.7081 8.34583 32.6289 8.20801L34.9685 8.0602C36.0721 7.95895 37.1918 7.81317 38.3198 7.62239C38.6879 11.2746 40.3564 15.0274 41.3701 17.1971H33.5096H31.0262H27.3737C27.3473 17.1557 27.3188 17.1151 27.2868 17.0763C25.3123 14.7008 23.3087 11.9532 22.1263 6.89176ZM55.9361 32.6552C59.9431 37.1081 64.4842 42.155 65.9695 50.0751C67.3363 57.3645 66.0224 63.4786 62.0644 68.2475C57.1841 74.128 48.2508 77.6389 38.1679 77.6389C28.0851 77.6389 19.1516 74.1281 14.2713 68.2477C10.3133 63.4787 8.99959 57.3647 10.3662 50.0753C11.8513 42.155 16.3927 37.1079 20.3996 32.6552C22.7954 29.9926 25.0588 27.4741 26.5095 24.5949H29.3926C30.0448 24.5949 30.5731 24.0663 30.5731 23.4144C30.5731 22.7624 30.0446 22.234 29.3926 22.234H24.3163C23.5785 22.234 22.9784 21.6338 22.9784 20.896C22.9784 20.1582 23.5785 19.558 24.3163 19.558H47.0608V22.2338H35.0195C34.3673 22.2338 33.839 22.7624 33.839 23.4143C33.839 24.0662 34.3674 24.5948 35.0195 24.5948H47.255C47.7489 26.057 49.1328 27.1132 50.7597 27.1132C50.9476 27.1132 51.132 27.0988 51.3126 27.0718C52.6301 28.9776 54.2361 30.7662 55.9361 32.6552ZM54.4589 18.9262L65.5581 15.8197C66.2609 15.6227 67.0109 16.0462 67.2072 16.7476C67.4038 17.4505 66.9811 18.2002 66.2794 18.3965L59.9362 20.1718C59.8845 20.1863 59.8352 20.2051 59.7872 20.2258L54.4589 19.0016V18.9262ZM70.1213 26.3952C69.956 27.1143 69.2378 27.5651 68.5177 27.3996L54.3847 24.1524C54.4331 23.9138 54.4587 23.667 54.4587 23.4141V21.4238L69.1167 24.7916C69.8272 24.9549 70.2845 25.6841 70.1213 26.3952Z" fill="#FFB11B"/>
        <path d="M45.7234 48.5198C47.4158 48.5198 48.7928 47.1429 48.7928 45.4504V43.5616C48.7928 39.1447 45.4984 35.4832 41.2375 34.9054V32.8583C41.2375 31.166 39.8606 29.7889 38.1681 29.7889C36.4758 29.7889 35.0987 31.1658 35.0987 32.8583V35.0616C30.7242 36.0374 27.5434 39.9263 27.5434 44.506C27.5434 49.8437 31.8859 54.1862 37.2236 54.1862H39.1123C41.065 54.1862 42.6539 55.7748 42.6539 57.7277C42.6539 59.6807 41.0651 61.2693 39.1123 61.2693H36.279C34.8469 61.2693 33.6819 60.1042 33.6819 58.6721C33.6819 56.9798 32.305 55.6027 30.6125 55.6027C28.9201 55.6027 27.5431 56.9796 27.5431 58.6721C27.5431 63.089 30.8375 66.7506 35.0984 67.3284V69.3754C35.0984 71.0678 36.4753 72.4448 38.1678 72.4448C39.8601 72.4448 41.2372 71.0679 41.2372 69.3754V67.1721C45.6117 66.1964 48.7925 62.3074 48.7925 57.7277C48.7925 52.3901 44.45 48.0476 39.1123 48.0476H37.2236C35.2709 48.0476 33.682 46.459 33.682 44.506C33.682 42.553 35.2708 40.9644 37.2236 40.9644H40.0569C41.489 40.9644 42.654 42.1296 42.654 43.5616V45.4504C42.654 47.1427 44.0311 48.5198 45.7234 48.5198ZM40.057 38.6035H37.2237C33.969 38.6035 31.3212 41.2513 31.3212 44.506C31.3212 47.7607 33.969 50.4085 37.2237 50.4085H39.1125C43.1484 50.4085 46.4317 53.692 46.4317 57.7277C46.4317 61.462 43.635 64.5884 39.9267 65.0004C39.3289 65.0668 38.8765 65.5721 38.8765 66.1737V69.3754C38.8765 69.7659 38.5587 70.0837 38.1683 70.0837C37.7778 70.0837 37.46 69.7659 37.46 69.3754V66.2275C37.46 65.5754 36.9315 65.047 36.2795 65.047C32.7643 65.047 29.9048 62.1873 29.9048 58.6723C29.9048 58.2818 30.2226 57.964 30.6131 57.964C31.0036 57.964 31.3214 58.2818 31.3214 58.6723C31.3214 61.4062 33.5456 63.6304 36.2795 63.6304H39.1128C42.3675 63.6304 45.0153 60.9826 45.0153 57.7279C45.0153 54.4732 42.3675 51.8254 39.1128 51.8254H37.224C33.1881 51.8254 29.9048 48.5419 29.9048 44.5062C29.9048 40.7719 32.7015 37.6455 36.4098 37.2335C37.0076 37.1671 37.46 36.6618 37.46 36.0602V32.8585C37.46 32.468 37.7778 32.1502 38.1683 32.1502C38.5587 32.1502 38.8765 32.468 38.8765 32.8585V36.0065C38.8765 36.6585 39.405 37.1869 40.057 37.1869C43.5722 37.1869 46.4317 40.0466 46.4317 43.5616V45.4504C46.4317 45.8408 46.1139 46.1587 45.7234 46.1587C45.333 46.1587 45.0151 45.8408 45.0151 45.4504V43.5616C45.0151 40.8277 42.7909 38.6035 40.057 38.6035Z" fill="#FFB11B"/>
    </g>
    <defs>
        <clipPath id="clip0">
            <rect width="80" height="80" fill="white"/>
        </clipPath>
    </defs>
</svg>
