<svg width="80" height="80" viewBox="0 0 80 80" fill="none" xmlns="http://www.w3.org/2000/svg">
    <g clip-path="url(#clip0)">
        <path d="M79.3414 10.0969C79.2939 10.0522 69.8968 1.09046 69.8968 1.09046C69.5376 0.745776 69.166 0.389526 68.4723 0.389526H30.641C29.536 0.389526 28.637 1.28843 28.637 2.39343V8.54703L15.3034 10.8327C14.2346 11.0202 13.5159 12.043 13.701 13.1106L14.3778 17.0562C10.0439 18.5147 5.59432 20.0181 1.29885 21.5611C0.283854 21.9322 -0.248802 23.0608 0.113385 24.0819L8.65792 47.8344C8.82979 48.3123 9.28026 48.61 9.76073 48.61C9.89229 48.61 10.0264 48.5877 10.1573 48.5405C10.7664 48.3214 11.0824 47.6501 10.8634 47.0411L2.44526 23.6398C6.49214 22.1909 10.6831 20.7728 14.7789 19.3942L18.8056 42.87L23.439 69.9062C23.6064 70.8606 24.4453 71.5397 25.3921 71.5397C25.4993 71.5397 25.6081 71.5309 25.7171 71.513L38.2665 69.3594L48.0728 67.6784L33.3242 72.9795L21.6937 77.1612L12.6612 52.038C12.4423 51.4289 11.7712 51.1128 11.162 51.3317C10.5529 51.5506 10.2368 52.2219 10.4557 52.8309L19.6164 78.3112C19.9093 79.1125 20.6684 79.6106 21.4707 79.6106C21.6924 79.6106 21.9176 79.5725 22.137 79.4923L34.1168 75.1852L61.319 65.408L66.5157 64.5172H77.9956C79.1006 64.5172 79.9996 63.6162 79.9996 62.5087V11.4173C79.9998 10.7159 79.6192 10.3581 79.3414 10.0969ZM76.2365 10.3744H70.3725L70.2271 10.375C69.9464 10.3769 69.289 10.3817 69.1223 10.2161C69.0839 10.1778 69.0389 10.05 69.0389 9.81265L69.0253 3.49781L76.2365 10.3744ZM77.656 62.1731H30.9807V39.3345C30.9807 38.6873 30.456 38.1627 29.8089 38.1627C29.1617 38.1627 28.637 38.6873 28.637 39.3345V62.5084C28.637 63.6158 29.536 64.5169 30.641 64.5169H52.6429L37.8703 67.0491L25.6856 69.1402L21.1156 42.4737L16.0735 13.0784L28.6368 10.9248V33.897C28.6368 34.5442 29.1615 35.0689 29.8087 35.0689C30.4559 35.0689 30.9806 34.5442 30.9806 33.897V2.73312H66.6798L66.6951 9.81531C66.6951 10.6737 66.9562 11.3681 67.471 11.8794C68.2621 12.6648 69.3804 12.7195 70.0746 12.7195C70.1343 12.7195 70.1909 12.7191 70.2439 12.7187L77.656 12.7183V62.1731Z" fill="#FFB11B"/>
        <path d="M36.6299 18.5858C36.6299 19.233 37.1546 19.7577 37.8018 19.7577H71.3074C71.9546 19.7577 72.4793 19.233 72.4793 18.5858C72.4793 17.9386 71.9546 17.4139 71.3074 17.4139H37.8018C37.1546 17.4139 36.6299 17.9386 36.6299 18.5858Z" fill="#FFB11B"/>
        <path d="M71.3074 25.7393H37.8018C37.1546 25.7393 36.6299 26.2639 36.6299 26.9111C36.6299 27.5583 37.1546 28.083 37.8018 28.083H71.3074C71.9546 28.083 72.4793 27.5583 72.4793 26.9111C72.4793 26.2639 71.9546 25.7393 71.3074 25.7393Z" fill="#FFB11B"/>
        <path d="M71.3074 34.0646H37.8018C37.1546 34.0646 36.6299 34.5893 36.6299 35.2365C36.6299 35.8836 37.1546 36.4083 37.8018 36.4083H71.3074C71.9546 36.4083 72.4793 35.8836 72.4793 35.2365C72.4793 34.5893 71.9546 34.0646 71.3074 34.0646Z" fill="#FFB11B"/>
        <path d="M71.3074 42.3898H37.8018C37.1546 42.3898 36.6299 42.9145 36.6299 43.5616C36.6299 44.2088 37.1546 44.7335 37.8018 44.7335H71.3074C71.9546 44.7335 72.4793 44.2088 72.4793 43.5616C72.4793 42.9145 71.9546 42.3898 71.3074 42.3898Z" fill="#FFB11B"/>
        <path d="M71.3074 50.7153H37.8018C37.1546 50.7153 36.6299 51.24 36.6299 51.8872C36.6299 52.5344 37.1546 53.0591 37.8018 53.0591H71.3074C71.9546 53.0591 72.4793 52.5344 72.4793 51.8872C72.4793 51.24 71.9546 50.7153 71.3074 50.7153Z" fill="#FFB11B"/>
    </g>
    <defs>
        <clipPath id="clip0">
            <rect width="80" height="80" fill="white"/>
        </clipPath>
    </defs>
</svg>
