<svg xmlns="http://www.w3.org/2000/svg" display="none">
    <symbol id="phone" viewBox="0 0 30 30">
        <g>
            <path d="M12.4226 17.5774C9.55912 14.714 8.91257 11.8506 8.76671 10.7033C8.72595 10.3861 8.83511 10.068 9.06205 9.84262L11.3793 7.52642C11.7202 7.18576 11.7807 6.65485 11.5252 6.24624L7.83568 0.517278C7.55301 0.0648202 6.97263 -0.0984763 6.4955 0.140209L0.572572 2.92969C0.186741 3.11968 -0.0402002 3.52962 0.0036067 3.95745C0.313952 6.90573 1.5993 14.1533 8.72171 21.2762C15.8441 28.3992 23.0907 29.684 26.0405 29.9943C26.4683 30.0382 26.8783 29.8112 27.0683 29.4254L29.8577 23.5024C30.0955 23.0264 29.9333 22.4475 29.4827 22.1643L23.7538 18.4759C23.3454 18.2201 22.8145 18.2802 22.4736 18.6207L20.1574 20.938C19.932 21.1649 19.6139 21.2741 19.2967 21.2333C18.1495 21.0874 15.286 20.4409 12.4226 17.5774Z"/>
            <path d="M23.793 16.0344C23.2217 16.0344 22.7586 15.5713 22.7586 14.9999C22.7537 10.717 19.2829 7.24617 14.9999 7.24133C14.4286 7.24133 13.9655 6.77817 13.9655 6.20685C13.9655 5.63552 14.4286 5.17236 14.9999 5.17236C20.4251 5.17835 24.8215 9.57481 24.8275 14.9999C24.8275 15.5713 24.3644 16.0344 23.793 16.0344Z"/>
            <path d="M28.9655 16.0345C28.3942 16.0345 27.931 15.5713 27.931 15C27.923 7.8617 22.1383 2.07695 14.9999 2.06897C14.4286 2.06897 13.9655 1.60581 13.9655 1.03448C13.9655 0.463154 14.4286 0 14.9999 0C23.2804 0.009122 29.9908 6.71951 30 15C30 15.2744 29.891 15.5375 29.697 15.7315C29.503 15.9255 29.2398 16.0345 28.9655 16.0345Z"/>
        </g>
    </symbol>

    <symbol id="location" viewBox="0 0 30 30">
        <path d="M15 0C9.00908 0 4.13513 4.87394 4.13513 10.8648C4.13513 18.2996 13.8581 29.2144 14.2721 29.6754C14.6609 30.1085 15.3398 30.1078 15.7279 29.6754C16.1419 29.2144 25.8649 18.2996 25.8649 10.8648C25.8647 4.87394 20.9909 0 15 0ZM15 16.3312C11.9858 16.3312 9.53367 13.879 9.53367 10.8648C9.53367 7.85062 11.9859 5.39848 15 5.39848C18.0141 5.39848 20.4663 7.85068 20.4663 10.8649C20.4663 13.879 18.0141 16.3312 15 16.3312Z"/>
    </symbol>

    <symbol id="telegram" viewBox="0 0 20 20">
        <g>
            <path d="M0.345884 9.33L5.23672 11.7675C5.42588 11.8608 5.64922 11.8542 5.83005 11.7483L10.1834 9.2175L7.54838 11.5525C7.41422 11.6717 7.33755 11.8417 7.33755 12.0208V17.7083C7.33755 18.3083 8.10338 18.5608 8.46255 18.0842L10.5767 15.2733L15.805 18.2508C16.1717 18.4617 16.6417 18.25 16.7267 17.8308L19.9876 1.58083C20.0851 1.0925 19.5992 0.694162 19.1475 0.875829L0.39755 8.18833C-0.105783 8.385 -0.138283 9.08916 0.345884 9.33ZM18.5375 2.45583L15.6717 16.7367L10.7176 13.915C10.4476 13.7608 10.1001 13.8292 9.90838 14.0825L8.58755 15.8383V12.3017L15.7134 5.98833C16.2776 5.48916 15.6292 4.60166 14.9851 4.98L5.49338 10.4983L2.16672 8.84083L18.5375 2.45583Z"/>
        </g>
    </symbol>

    <symbol id="whatsapp" viewBox="0 0 20 20">
        <g>
            <path d="M14.5892 11.9226L14.5817 11.9851C12.7492 11.0717 12.5575 10.9501 12.3208 11.3051C12.1567 11.5509 11.6783 12.1084 11.5342 12.2734C11.3883 12.4359 11.2433 12.4484 10.9958 12.3359C10.7458 12.2109 9.94332 11.9484 8.99332 11.0984C8.25332 10.4359 7.75666 9.62339 7.60999 9.37339C7.36582 8.95173 7.87666 8.89173 8.34166 8.01173C8.42499 7.83673 8.38249 7.69923 8.32082 7.57506C8.25832 7.45006 7.76082 6.22506 7.55249 5.73673C7.35249 5.25006 7.14666 5.31173 6.99249 5.31173C6.51249 5.27006 6.16166 5.27673 5.85249 5.59839C4.50749 7.07673 4.84666 8.60173 5.99749 10.2234C8.25916 13.1834 9.46416 13.7284 11.6675 14.4851C12.2625 14.6742 12.805 14.6476 13.2342 14.5859C13.7125 14.5101 14.7067 13.9851 14.9142 13.3976C15.1267 12.8101 15.1267 12.3226 15.0642 12.2101C15.0025 12.0976 14.8392 12.0351 14.5892 11.9226Z"/>
            <path d="M17.1 2.87404C10.6925 -3.32013 0.0883333 1.17237 0.0841666 9.91071C0.0841666 11.6574 0.541666 13.3607 1.41333 14.8649L0 19.9999L5.27916 18.6232C11.8667 22.1815 19.9967 17.4565 20 9.91571C20 7.26904 18.9667 4.77821 17.0875 2.90654L17.1 2.87404ZM18.335 9.88821C18.33 16.249 11.3475 20.2215 5.825 16.9749L5.525 16.7965L2.4 17.609L3.2375 14.5715L3.03833 14.259C-0.398333 8.78821 3.55 1.63821 10.06 1.63821C12.2717 1.63821 14.3475 2.50071 15.9108 4.06321C17.4733 5.61237 18.335 7.68821 18.335 9.88821Z"/>
        </g>
    </symbol>

    <symbol id="mail" viewBox="0 0 30 30">
        <path d="M29.7355 5.96021L20.6371 15L29.7355 24.0398C29.8999 23.696 29.9997 23.316 29.9997 22.9101V7.08983C29.9997 6.68396 29.8999 6.30397 29.7355 5.96021Z"/>
        <path d="M27.3629 4.45312H2.63634C2.23046 4.45312 1.85048 4.55291 1.50671 4.71738L13.1354 16.2875C14.1636 17.3157 15.8356 17.3157 16.8638 16.2875L28.4925 4.71738C28.1488 4.55291 27.7688 4.45312 27.3629 4.45312Z"/>
        <path d="M0.264258 5.96021C0.0997852 6.30397 0 6.68396 0 7.08983V22.9101C0 23.316 0.0997852 23.6961 0.264258 24.0398L9.36264 15L0.264258 5.96021Z"/>
        <path d="M19.3942 16.2429L18.1067 17.5304C16.3935 19.2436 13.6057 19.2436 11.8925 17.5304L10.6051 16.2429L1.50671 25.2827C1.85048 25.4472 2.23046 25.547 2.63634 25.547H27.3629C27.7688 25.547 28.1488 25.4472 28.4925 25.2827L19.3942 16.2429Z"/>
    </symbol>

    <symbol id="arrow-right" viewBox="0 0 31 8">
        <path d="M30.3536 4.35356C30.5488 4.15829 30.5488 3.84171 30.3536 3.64645L27.1716 0.464468C26.9763 0.269206 26.6597 0.269206 26.4645 0.464468C26.2692 0.659731 26.2692 0.976313 26.4645 1.17158L29.2929 4L26.4645 6.82843C26.2692 7.02369 26.2692 7.34027 26.4645 7.53554C26.6597 7.7308 26.9763 7.7308 27.1716 7.53554L30.3536 4.35356ZM-4.37114e-08 4.5L30 4.5L30 3.5L4.37114e-08 3.5L-4.37114e-08 4.5Z"/>
    </symbol>

</svg>